<?xml version="1.0" encoding="utf-8"?>
<!-- Generator: Adobe Illustrator 24.1.2, SVG Export Plug-In . SVG Version: 6.00 Build 0)  -->
<svg version="1.1" id="Layer_1" xmlns="http://www.w3.org/2000/svg" xmlns:xlink="http://www.w3.org/1999/xlink" x="0px" y="0px"
	 viewBox="0 0 200 90" style="enable-background:new 0 0 200 90;" xml:space="preserve">
<style type="text/css">
	.st0{fill:#FFFFFF;}
</style>
<g>
	<path class="st0" d="M178,67.7c0,0.3,0.1,0.5,0.3,0.5c0.3,0.1,0.6,0.2,1.1,0.2c0.4,0.1,0.8,0.1,1.2,0.1c0.6,0,1,0,1.3-0.1
		c0.3-0.1,0.6-0.2,0.8-0.4c0.5-0.4,0.9-0.9,1.3-1.7c0.3-0.7,0.5-1.7,0.5-2.8c0-1-0.1-1.8-0.4-2.5c-0.3-0.7-0.7-1.3-1.1-1.7
		c-0.5-0.4-1-0.7-1.5-0.9c-0.5-0.2-1-0.3-1.5-0.3c-0.8,0-1.3,0-1.6,0.1c-0.2,0.1-0.3,0.2-0.3,0.4V67.7z M174.5,65.4
		c0-2.4,0-3.9,0-4.6c0-0.7,0-1.2-0.1-1.7c0-0.5-0.1-0.9-0.3-1.2c-0.2-0.2-0.5-0.4-1-0.5c-0.2-0.1-0.6-0.1-1.2-0.1
		c-0.3,0-0.5-0.1-0.5-0.3c0-0.2,0.2-0.3,0.7-0.3c0.4,0,0.8,0,1.2,0c0.4,0,0.9,0,1.7,0c0.7,0,1.1,0,1.2,0c0.4,0,1.1,0,2.2-0.1
		c1,0,1.7,0,2,0c1.1,0,2.1,0.1,3,0.3c0.9,0.2,1.7,0.5,2.4,1c0.5,0.3,1,0.9,1.4,1.6c0.4,0.7,0.6,1.6,0.6,2.5c0,1.2-0.3,2.3-0.9,3.3
		c-0.6,1-1.6,2.2-3,3.3l1,1.3c2.6,3.3,4.4,5.4,5.4,6.5c0.7,0.7,1.3,1.2,1.9,1.5c0.5,0.3,1,0.4,1.4,0.5h0c0.3,0.1,0.6,0.1,0.8,0.1
		c0.2,0,0.4,0.1,0.4,0.2c0,0.2-0.2,0.3-0.6,0.3h-2.8c-0.8,0-1.5,0-1.9-0.1c-0.4-0.1-0.9-0.2-1.3-0.4c-0.6-0.3-1.2-0.8-1.8-1.5
		c-0.6-0.7-1.4-1.6-2.3-2.9c-0.4-0.5-0.9-1.2-1.5-2.1c-0.6-0.8-0.9-1.3-1.1-1.5c-0.1-0.2-0.3-0.4-0.4-0.5c-0.1-0.1-0.3-0.2-0.5-0.2
		l-2.6-0.1c-0.2,0-0.2,0.1-0.2,0.2v0.4c0,1.8,0,3.1,0,4.1s0.1,1.7,0.1,2.3c0.1,0.5,0.2,0.9,0.3,1.1c0.1,0.3,0.4,0.4,0.8,0.5
		c0.2,0,0.5,0,0.8,0.1c0.3,0,0.5,0,0.7,0c0.2,0,0.4,0.1,0.4,0.2c0,0.2-0.2,0.3-0.6,0.3c-0.4,0-0.8,0-1.2,0c-0.4,0-1.2,0-2.2,0
		c-0.5,0-0.8,0-0.9,0c-0.2,0-0.6,0-1.2,0c-1.1,0-1.9,0.1-2.4,0.1c-0.4,0-0.6-0.1-0.6-0.3c0-0.2,0.2-0.2,0.5-0.2c0.4,0,0.7,0,1.1-0.1
		c0.3-0.1,0.5-0.2,0.6-0.5c0.1-0.3,0.2-0.6,0.3-1.2c0.1-0.6,0.1-1.3,0.1-2.3c0-0.9,0-2.3,0-4V65.4z M156.6,65.4c0-2.4,0-3.9,0-4.6
		c0-0.7,0-1.2-0.1-1.7c0-0.5-0.1-0.9-0.3-1.2c-0.2-0.2-0.5-0.4-1-0.5c-0.2-0.1-0.6-0.1-1.2-0.1c-0.3,0-0.5-0.1-0.5-0.3
		c0-0.2,0.2-0.3,0.7-0.3c0.5,0,1.4,0,2.8,0.1c0.8,0,1.3,0,1.5,0c4.6,0,7,0,7.4,0c0.7-0.1,1.1-0.1,1.3-0.2c0,0,0.1,0,0.2-0.1
		c0.1,0,0.2-0.1,0.3-0.1c0.1,0,0.2,0.1,0.2,0.3c0,0,0,0.1,0,0.3c-0.1,0.5-0.2,1-0.2,1.7c0,0,0,0.2,0,0.6c0,0.3,0,0.5-0.1,0.8
		c0,0.2,0,0.4-0.1,0.5c0,0.2-0.1,0.3-0.3,0.3c-0.2,0-0.3-0.1-0.3-0.4c0-0.2,0-0.3,0-0.5c0-0.2-0.1-0.4-0.1-0.5
		c-0.1-0.3-0.3-0.5-0.6-0.7c-0.3-0.2-0.7-0.3-1.4-0.4c-0.1,0-0.3,0-0.7,0c-0.3,0-0.8,0-1.4,0c-0.9,0-1.6,0-2.1,0
		c-0.1,0-0.2,0.1-0.2,0.3v7.5c0,0.2,0.1,0.3,0.2,0.3c0.9,0,1.8,0,2.8,0c1,0,1.6,0,1.9,0c0.7-0.1,1.2-0.2,1.4-0.4l0-0.1
		c0.2-0.2,0.3-0.3,0.4-0.3c0.1,0,0.2,0.1,0.2,0.2c0,0,0,0.1,0,0.3c-0.1,0.5-0.2,1.2-0.2,1.9c0,0.3,0,0.6-0.1,1.1c0,0.4,0,0.8,0,0.9
		c0,0.2,0,0.3,0,0.4c0,0.1-0.1,0.1-0.2,0.1c-0.2,0-0.3-0.1-0.3-0.3c0-0.1,0-0.1,0-0.3c0-0.3,0-0.6-0.1-0.8c-0.1-0.3-0.2-0.6-0.5-0.8
		c-0.3-0.2-0.6-0.3-1.2-0.4c-0.1,0-0.4,0-0.7,0c-0.4,0-0.8,0-1.3,0c-0.9,0-1.7,0-2.2,0c-0.1,0-0.2,0.1-0.2,0.3v2.3v4.6
		c0,0.6,0.1,1,0.2,1.3c0.1,0.3,0.3,0.5,0.5,0.7c0.2,0.2,0.6,0.3,1,0.4c0.4,0.1,1.1,0.1,1.9,0.1c0.6,0,1.1,0,1.6-0.1
		c0.5,0,0.9-0.1,1.2-0.3c0.4-0.2,0.7-0.4,0.9-0.8c0.2-0.3,0.4-0.8,0.5-1.4c0.1-0.3,0.2-0.4,0.3-0.4c0.1,0,0.2,0,0.2,0.1
		c0,0.1,0,0.2,0,0.4c0,0.2,0,0.4,0,0.7c0,0.3-0.1,0.6-0.1,1c0,0.4-0.1,0.7-0.1,1c0,0.3-0.1,0.5-0.1,0.6c-0.1,0.4-0.2,0.6-0.4,0.7
		c-0.2,0.1-0.6,0.1-1.2,0.1c-1.2,0-2.2,0-3,0c-0.8,0-1.8,0-3-0.1c-1,0-1.8-0.1-2.3-0.1c-0.2,0-0.6,0-1.4,0c-1.1,0-1.9,0.1-2.3,0.1
		c-0.4,0-0.6-0.1-0.6-0.3c0-0.2,0.2-0.2,0.5-0.2c0.4,0,0.7,0,1.1-0.1c0.3-0.1,0.5-0.2,0.6-0.5c0.1-0.3,0.2-0.6,0.3-1.2
		c0.1-0.6,0.1-1.3,0.1-2.3c0-0.9,0-2.3,0-4V65.4z M130.9,75.1c0,1.1,0.1,1.9,0.3,2.4c0.2,0.5,0.4,0.8,0.7,0.9
		c0.4,0.1,0.9,0.2,1.5,0.2c0.3,0,0.5,0.1,0.5,0.2c0,0.2-0.2,0.3-0.7,0.3c-0.8,0-1.8,0-2.8-0.1c-0.4,0-0.7,0-0.8,0
		c-0.1,0-0.2,0-0.5,0c-0.3,0-0.7,0-1.2,0c-0.5,0-1,0-1.5,0c-0.4,0-0.7-0.1-0.7-0.3c0-0.2,0.2-0.2,0.5-0.2c0.6,0,1,0,1.3-0.1
		c0.4-0.1,0.6-0.4,0.7-0.9c0.1-0.5,0.2-1.4,0.2-2.8l0.3-17.5c0-0.7,0.1-1,0.4-1c0.2,0,0.5,0.2,0.8,0.6c0.1,0.1,0.2,0.2,0.3,0.3
		c0,0,0.4,0.4,1.1,1.1c0.7,0.7,1.4,1.5,2.1,2.3c0.8,0.8,1.7,1.8,2.8,2.9c1.1,1.1,2.2,2.2,3.2,3.2c0.5,0.5,0.9,1,1.5,1.5
		c0.5,0.5,1.5,1.6,2.9,3c0.7,0.7,1.1,1.2,1.5,1.6c0.3,0.3,0.6,0.6,0.7,0.7h0.1l-0.3-13.3c0-0.9-0.1-1.5-0.3-1.9
		c-0.1-0.4-0.4-0.6-0.8-0.8c-0.2-0.1-0.4-0.1-0.7-0.1c-0.3,0-0.6,0-0.9,0c-0.3,0-0.5-0.1-0.5-0.3c0-0.1,0.1-0.2,0.2-0.2
		c0.1,0,0.3-0.1,0.6-0.1c0.7,0,1.5,0,2.5,0.1c0.5,0,0.8,0,1,0c0.1,0,0.2,0,0.5,0c0.9,0,1.7-0.1,2.4-0.1c0.2,0,0.4,0,0.5,0.1
		c0.1,0,0.2,0.1,0.2,0.2c0,0.2-0.2,0.3-0.5,0.3c-0.4,0-0.7,0-0.9,0.1c-0.4,0.1-0.7,0.4-0.8,0.7c-0.1,0.4-0.2,1-0.3,1.8l-0.3,18.7
		c0,0.6-0.1,0.9-0.4,0.9c-0.1,0-0.3-0.1-0.4-0.2c-0.2-0.1-0.3-0.3-0.6-0.5c-0.5-0.4-1.1-1.1-1.9-1.9c-0.8-0.8-1.8-1.8-2.9-2.9
		c-1.9-1.9-3.2-3.2-3.9-3.9c-0.6-0.6-1.2-1.2-1.9-1.9c-0.6-0.7-1.2-1.3-1.7-1.8c-0.5-0.6-1.1-1.2-1.7-1.8c-0.6-0.7-1-1.1-1.1-1.2
		c-0.4-0.5-0.6-0.7-0.7-0.7h-0.1L130.9,75.1z M116.5,70c0.1,0,0.1-0.1,0.1-0.2l-2.7-7.3v0c0-0.2-0.1-0.2-0.1-0.2
		c-0.1,0-0.1,0.1-0.2,0.3l-2.7,7.3c0,0.1,0,0.2,0.1,0.2H116.5z M110.4,71.4c-0.1,0-0.2,0.1-0.3,0.2l-1.6,4.2
		c-0.3,0.7-0.4,1.3-0.4,1.8c0,0.3,0.1,0.5,0.3,0.7c0.2,0.2,0.5,0.2,0.9,0.2h0.4c0.3,0,0.4,0.1,0.4,0.2c0,0.2-0.2,0.3-0.5,0.3
		c-0.4,0-0.9,0-1.6,0c-0.8,0-1.3-0.1-1.5-0.1c-0.1,0-0.3,0-0.7,0c-0.3,0-0.7,0-1.3,0c-0.5,0-1.1,0-1.6,0c-0.4,0-0.6-0.1-0.6-0.3
		c0-0.2,0.1-0.2,0.4-0.2c0.3,0,0.6,0,0.9-0.1c0.6-0.1,1.1-0.3,1.5-0.8c0.4-0.4,0.7-1.1,1-1.9l7.4-18.6c0.2-0.5,0.3-0.8,0.4-0.9
		c0.1-0.2,0.2-0.3,0.4-0.3c0.2,0,0.5,0.3,0.7,0.9c0.1,0.3,0.4,1,0.9,2.2c0.5,1.1,1,2.6,1.8,4.5c1.7,4.2,2.6,6.6,2.8,7
		c0.2,0.5,0.4,1.1,0.8,2c0.3,0.8,0.7,1.7,1.1,2.6c0.5,1.2,0.9,2,1.4,2.4c0.4,0.4,0.8,0.7,1.2,0.8c0.4,0.1,0.8,0.1,1.2,0.1
		c0.3,0,0.4,0.1,0.4,0.2c0,0.1-0.1,0.2-0.3,0.2c-0.2,0-0.5,0.1-1.1,0.1c-0.9,0-1.8,0-2.6,0c-0.8,0-1.8,0-3-0.1h-0.1
		c-0.5,0-0.8-0.1-0.8-0.2c0-0.2,0.1-0.2,0.4-0.3c0.2-0.1,0.3-0.2,0.3-0.4c0-0.1,0-0.2-0.1-0.2l-2.4-6.3c-0.1-0.1-0.2-0.2-0.3-0.2
		H110.4z M94.7,58.4l-4.4,0.1c-0.9,0-1.5,0.1-1.9,0.2c-0.4,0.1-0.7,0.3-0.9,0.6c-0.3,0.4-0.4,0.7-0.5,1c-0.1,0.2-0.2,0.4-0.3,0.4
		c-0.2,0-0.3-0.2-0.3-0.5c0-0.1,0-0.3,0.1-0.6c0-0.3,0.1-0.7,0.2-1.2c0.1-0.5,0.2-0.8,0.2-1.1c0.1-0.3,0.1-0.5,0.1-0.5
		c0.1-0.4,0.2-0.6,0.4-0.6c0.1,0,0.2,0,0.3,0.1c0.3,0.2,0.7,0.2,0.9,0.3c0.4,0,0.9,0.1,1.4,0.1c0.5,0,1,0,1.5,0h11.7
		c0.6,0,1.1,0,1.5-0.1c0.4,0,0.7-0.1,1.1-0.2c0.2,0,0.3-0.1,0.3-0.1c0.2,0,0.2,0.2,0.2,0.6c0,0.2,0,0.7,0,1.5c0,1-0.1,1.6-0.1,1.9
		c0,0.3-0.1,0.5-0.3,0.5c-0.2,0-0.3-0.2-0.3-0.6l0-0.3c0-0.5-0.3-0.8-0.9-1.2c-0.5-0.3-1.4-0.5-2.6-0.5l-3.7-0.1v12.1
		c0,1.8,0,3.1,0,4c0,0.9,0.1,1.7,0.1,2.3c0.1,0.5,0.2,0.8,0.3,1.1c0.1,0.3,0.4,0.4,0.8,0.5c0.2,0,0.5,0,0.7,0.1c0.3,0,0.5,0,0.8,0
		c0.3,0,0.5,0.1,0.5,0.2c0,0.2-0.2,0.3-0.6,0.3c-0.8,0-1.9,0-3.2-0.1c-0.7,0-1.1,0-1.4,0c-0.2,0-0.6,0-1.4,0c-1.1,0-1.9,0.1-2.3,0.1
		c-0.4,0-0.6-0.1-0.6-0.3c0-0.2,0.2-0.2,0.5-0.2c0.4,0,0.7,0,1.1-0.1c0.3-0.1,0.5-0.2,0.6-0.5c0.1-0.3,0.2-0.6,0.3-1.1
		c0.1-0.6,0.1-1.3,0.1-2.3c0-0.9,0-2.3,0-4V58.4z M65.1,75.1c0,1.1,0.1,1.9,0.3,2.4c0.2,0.5,0.4,0.8,0.7,0.9
		c0.4,0.1,0.9,0.2,1.5,0.2c0.3,0,0.5,0.1,0.5,0.2c0,0.2-0.2,0.3-0.7,0.3c-0.8,0-1.8,0-2.8-0.1c-0.4,0-0.7,0-0.8,0
		c-0.1,0-0.2,0-0.5,0c-0.3,0-0.7,0-1.2,0c-0.5,0-1,0-1.5,0c-0.4,0-0.7-0.1-0.7-0.3c0-0.2,0.2-0.2,0.5-0.2c0.6,0,1,0,1.3-0.1
		c0.4-0.1,0.6-0.4,0.7-0.9c0.1-0.5,0.2-1.4,0.2-2.8L63,57.3c0-0.7,0.1-1,0.4-1c0.2,0,0.5,0.2,0.8,0.6c0.1,0.1,0.2,0.2,0.3,0.3
		c0,0,0.4,0.4,1.1,1.1c0.7,0.7,1.4,1.5,2.1,2.3c0.8,0.8,1.7,1.8,2.8,2.9c1.1,1.1,2.2,2.2,3.2,3.2c0.5,0.5,0.9,1,1.5,1.5
		c0.5,0.5,1.5,1.6,2.9,3c0.7,0.7,1.1,1.2,1.5,1.6c0.3,0.3,0.6,0.6,0.7,0.7h0.1L80,60.2c0-0.9-0.1-1.5-0.3-1.9
		c-0.1-0.4-0.4-0.6-0.8-0.8c-0.2-0.1-0.4-0.1-0.7-0.1c-0.3,0-0.6,0-0.9,0c-0.3,0-0.5-0.1-0.5-0.3c0-0.1,0.1-0.2,0.2-0.2
		c0.1,0,0.3-0.1,0.6-0.1c0.7,0,1.5,0,2.5,0.1c0.5,0,0.8,0,1,0c0.1,0,0.2,0,0.5,0c0.9,0,1.7-0.1,2.4-0.1c0.2,0,0.4,0,0.5,0.1
		c0.1,0,0.2,0.1,0.2,0.2c0,0.2-0.2,0.3-0.5,0.3c-0.4,0-0.7,0-0.9,0.1c-0.4,0.1-0.7,0.4-0.8,0.7c-0.1,0.4-0.2,1-0.3,1.8L82,78.6
		c0,0.6-0.1,0.9-0.4,0.9c-0.1,0-0.3-0.1-0.4-0.2c-0.2-0.1-0.3-0.3-0.6-0.5c-0.5-0.4-1.1-1.1-1.9-1.9c-0.8-0.8-1.8-1.8-2.9-2.9
		c-1.9-1.9-3.2-3.2-3.9-3.9c-0.6-0.6-1.2-1.2-1.9-1.9c-0.6-0.7-1.2-1.3-1.7-1.8c-0.5-0.6-1.1-1.2-1.7-1.8c-0.6-0.7-1-1.1-1.1-1.2
		c-0.4-0.5-0.6-0.7-0.7-0.7h-0.1L65.1,75.1z M37.7,65.4c0-2.4,0-3.9,0-4.6c0-0.7,0-1.2-0.1-1.7c0-0.5-0.1-0.9-0.3-1.2
		c-0.2-0.2-0.5-0.4-1-0.5c-0.2-0.1-0.6-0.1-1.2-0.1c-0.3,0-0.5-0.1-0.5-0.3c0-0.2,0.2-0.3,0.7-0.3c0.6,0,1.5,0,2.8,0.1
		c0.8,0,1.4,0,1.6,0c0.2,0,0.7,0,1.5,0c1.1,0,1.8-0.1,2.2-0.1c0.4,0,0.7,0.1,0.7,0.3c0,0.2-0.2,0.3-0.5,0.3c-0.2,0-0.5,0-0.9,0.1
		c-0.4,0.1-0.7,0.2-0.8,0.5c-0.1,0.3-0.2,0.7-0.3,1.2c0,0.5-0.1,1.1-0.1,1.7c0,0.7,0,2.2,0,4.6v4.1c0,2,0.2,3.6,0.6,4.7
		c0.4,1.1,1,2,1.7,2.6c0.6,0.5,1.2,0.8,1.8,1c0.6,0.2,1.2,0.2,1.9,0.2c0.7,0,1.5-0.1,2.2-0.4c0.7-0.3,1.4-0.7,1.9-1.2
		c0.7-0.7,1.2-1.7,1.4-2.8c0.2-1.1,0.3-2.7,0.3-4.5v-3.7c0-2.4,0-3.9,0-4.6c0-0.7,0-1.2-0.1-1.7c0-0.5-0.1-0.9-0.3-1.2
		c-0.2-0.2-0.5-0.4-1-0.5c-0.1,0-0.3,0-0.5-0.1c-0.2,0-0.4,0-0.6,0c-0.3,0-0.5-0.1-0.5-0.3c0-0.2,0.2-0.3,0.6-0.3c0.5,0,1.1,0,1.7,0
		c0.6,0,1.1,0,1.7,0.1h0.1c0.1,0,0.4,0,0.9,0c0.4,0,0.8,0,1.3,0c0.5,0,0.9,0,1.2,0c0.4,0,0.6,0.1,0.6,0.3c0,0.2-0.2,0.3-0.5,0.3
		c-0.2,0-0.5,0-0.9,0.1c-0.4,0.1-0.7,0.2-0.8,0.5c-0.1,0.3-0.2,0.7-0.3,1.2c0,0.5-0.1,1.1-0.1,1.7c0,0.7,0,2.2,0,4.6v3.2
		c0,1,0,1.8-0.1,2.6c-0.1,0.8-0.2,1.6-0.4,2.3c-0.2,0.8-0.5,1.5-0.9,2.2c-0.4,0.7-0.9,1.3-1.5,1.8c-1,0.8-2,1.4-2.9,1.7
		c-1,0.3-2.1,0.4-3.2,0.4c-0.5,0-1,0-1.5-0.1c-0.5,0-1-0.1-1.6-0.3c-0.6-0.1-1.2-0.3-1.8-0.6c-0.6-0.3-1.2-0.7-1.6-1.1
		c-0.8-0.8-1.5-1.7-1.9-3c-0.5-1.2-0.7-2.9-0.7-4.9V65.4z M10.3,56.9c0.1-0.5,0.3-0.8,0.5-0.8c0.1,0,0.2,0.1,0.4,0.2
		c0.1,0.1,0.3,0.4,0.4,0.7l8.1,16.7l8.1-16.9c0.2-0.5,0.4-0.7,0.7-0.7c0.3,0,0.5,0.3,0.5,0.9l2.7,18.3c0.1,1,0.3,1.7,0.5,2.1
		c0.2,0.4,0.5,0.7,0.9,0.9c0.6,0.2,1.2,0.3,1.8,0.3c0.3,0,0.5,0.1,0.5,0.2c0,0.2-0.3,0.3-0.8,0.3c-0.4,0-1.4,0-2.8-0.1
		c-0.9,0-1.6,0-2-0.1c-0.5,0-0.8,0-1.2-0.1c-0.3,0-0.6-0.1-0.7-0.1c-0.1,0-0.2-0.1-0.2-0.2c0-0.1,0.1-0.2,0.3-0.3
		c0.1,0,0.2-0.2,0.2-0.6c0-0.2,0-0.4-0.1-0.7l-1.8-13h-0.1l-6.5,13.4c-0.4,0.7-0.6,1.2-0.7,1.4c-0.1,0.2-0.2,0.3-0.4,0.3
		c-0.2,0-0.5-0.4-0.9-1.3c0-0.1-0.1-0.1-0.1-0.2c-0.8-1.5-1.4-2.7-1.8-3.5c-0.4-0.8-0.7-1.5-1.1-2.1c-0.3-0.6-0.5-1-0.6-1.2
		c-0.1-0.3-0.4-0.8-0.8-1.7c-0.4-0.9-0.7-1.5-0.9-1.8c-0.4-0.9-0.7-1.5-0.9-1.9c-0.2-0.4-0.4-0.8-0.5-1.1h-0.1L9.5,76.2
		c-0.1,0.5-0.1,1-0.1,1.4c0,0.3,0.1,0.5,0.2,0.6c0.2,0.2,0.4,0.3,0.7,0.3c0.5,0.1,0.9,0.1,1.2,0.1c0.3,0,0.4,0.1,0.4,0.2
		c0,0.2-0.2,0.3-0.7,0.3c-0.5,0-1.2,0-2.2-0.1c-0.5,0-0.8,0-0.9,0c-0.1,0-0.5,0-1.1,0c-0.9,0-1.5,0.1-1.8,0.1
		c-0.4,0-0.5-0.1-0.5-0.3c0-0.1,0.2-0.2,0.5-0.2c0.3,0,0.6,0,0.9-0.1c0.4-0.1,0.6-0.3,0.8-0.7c0.2-0.4,0.3-0.9,0.4-1.6L10.3,56.9z"
		/>
	<path class="st0" d="M182.2,29.8c0.1,0,0.1-0.1,0.1-0.2l-2.5-7v0c0-0.2-0.1-0.2-0.1-0.2c-0.1,0-0.1,0.1-0.2,0.3l-2.6,6.9
		c0,0.1,0,0.2,0.1,0.2H182.2z M176.4,31.2c-0.1,0-0.2,0.1-0.3,0.2l-1.5,4c-0.3,0.7-0.4,1.3-0.4,1.7c0,0.3,0.1,0.5,0.3,0.6
		c0.2,0.2,0.5,0.2,0.9,0.2h0.4c0.3,0,0.4,0.1,0.4,0.2c0,0.2-0.2,0.3-0.5,0.3c-0.4,0-0.9,0-1.5,0c-0.7,0-1.2-0.1-1.5-0.1
		c-0.1,0-0.3,0-0.6,0c-0.3,0-0.7,0-1.2,0c-0.5,0-1,0-1.5,0c-0.4,0-0.5-0.1-0.5-0.3c0-0.2,0.1-0.2,0.3-0.2c0.3,0,0.6,0,0.9-0.1
		c0.6-0.1,1.1-0.3,1.4-0.7c0.3-0.4,0.7-1,1-1.8l7.1-17.7c0.2-0.4,0.3-0.7,0.4-0.9c0.1-0.2,0.2-0.2,0.4-0.2c0.2,0,0.4,0.3,0.7,0.9
		c0.1,0.3,0.4,1,0.8,2.1c0.4,1.1,1,2.5,1.7,4.3c1.6,4,2.5,6.2,2.7,6.7c0.2,0.4,0.4,1.1,0.7,1.9c0.3,0.8,0.7,1.6,1,2.5
		c0.5,1.1,0.9,1.9,1.3,2.3c0.4,0.4,0.8,0.7,1.2,0.8c0.4,0.1,0.8,0.1,1.2,0.1c0.2,0,0.4,0.1,0.4,0.2c0,0.1-0.1,0.2-0.3,0.2
		c-0.2,0-0.5,0.1-1,0.1c-0.8,0-1.7,0-2.5,0c-0.8,0-1.8,0-2.9-0.1h-0.1c-0.5,0-0.7-0.1-0.7-0.2c0-0.2,0.1-0.2,0.4-0.3
		c0.2-0.1,0.3-0.2,0.3-0.4c0-0.1,0-0.2-0.1-0.2l-2.3-6c-0.1-0.1-0.2-0.2-0.3-0.2H176.4z M163.3,25.5c0-2.3,0-3.7,0-4.3
		c0-0.6,0-1.2-0.1-1.6c-0.1-0.9-0.4-1.4-1-1.6c-0.3-0.1-0.6-0.1-1-0.1c-0.3,0-0.5-0.1-0.5-0.3c0-0.2,0.2-0.2,0.7-0.2
		c0.4,0,1,0,2.1,0.1c0.8,0,1.3,0,1.6,0c0.2,0,0.7,0,1.4,0c1,0,1.7-0.1,2.1-0.1c0.4,0,0.6,0.1,0.6,0.2c0,0.2-0.2,0.3-0.5,0.3
		c-0.2,0-0.5,0-0.8,0.1c-0.4,0.1-0.6,0.2-0.8,0.5c-0.1,0.2-0.2,0.6-0.3,1.1c0,0.5-0.1,1-0.1,1.6c0,0.6,0,2.1,0,4.3v5
		c0,1.7,0,3.1,0,4c0,0.9,0,1.6,0.1,2.2c0.1,0.4,0.2,0.8,0.3,1c0.2,0.2,0.4,0.4,0.8,0.4c0.2,0,0.4,0,0.7,0.1c0.3,0,0.5,0,0.7,0
		c0.3,0,0.5,0.1,0.5,0.2c0,0.2-0.2,0.3-0.5,0.3c-0.8,0-1.8,0-3.1-0.1c-0.6,0-1,0-1.3,0c-0.2,0-0.6,0-1.3,0c-1.1,0-1.8,0.1-2.2,0.1
		c-0.4,0-0.6-0.1-0.6-0.3c0-0.2,0.2-0.2,0.5-0.2c0.3,0,0.7,0,1-0.1c0.5-0.1,0.7-0.6,0.8-1.4c0.1-0.5,0.1-1.3,0.1-2.2
		c0-0.9,0-2.2,0-4V25.5z M170,12.8c0.1,0.1,0.1,0.2,0.1,0.2c0,0.1-0.1,0.2-0.2,0.2h-0.1c-0.1,0-0.2,0-0.3,0c0,0-0.1,0-0.2,0
		c-0.2,0-0.2,0-0.3,0c-0.4,0.1-0.8,0.1-1.2,0.3c-0.4,0.1-0.9,0.3-1.3,0.4c-0.5,0.2-0.9,0.3-1.3,0.5c-0.4,0.2-0.7,0.3-1,0.5l-0.2,0.1
		c-0.2,0.1-0.3,0.1-0.3,0.1c-0.1,0-0.2-0.1-0.2-0.2c0-0.1,0.1-0.2,0.3-0.4c0.3-0.2,0.6-0.6,1.1-0.9c0.5-0.4,0.9-0.7,1.4-1.1
		c0.5-0.4,0.9-0.7,1.3-1c0.4-0.3,0.6-0.5,0.8-0.5c0.2-0.2,0.4-0.3,0.6-0.3c0.1,0,0.3,0.1,0.4,0.3C169.4,11.5,169.6,12,170,12.8z
		 M138.9,34.8c0,1,0.1,1.8,0.3,2.3c0.2,0.5,0.4,0.8,0.7,0.9c0.4,0.1,0.9,0.2,1.5,0.2c0.3,0,0.5,0.1,0.5,0.2c0,0.2-0.2,0.3-0.6,0.3
		c-0.8,0-1.7,0-2.7-0.1c-0.4,0-0.6,0-0.8,0c-0.1,0-0.2,0-0.5,0c-0.3,0-0.6,0-1.1,0c-0.5,0-1,0-1.4,0c-0.4,0-0.6-0.1-0.6-0.3
		c0-0.2,0.2-0.2,0.5-0.2c0.5,0,0.9,0,1.3-0.1c0.4-0.1,0.6-0.4,0.7-0.9c0.1-0.5,0.2-1.3,0.2-2.6l0.3-16.7c0-0.6,0.1-1,0.4-1
		c0.2,0,0.4,0.2,0.8,0.6c0.1,0.1,0.2,0.2,0.3,0.3c0,0,0.4,0.4,1,1.1c0.6,0.7,1.3,1.4,2,2.2c0.7,0.8,1.6,1.7,2.6,2.8
		c1.1,1.1,2.1,2.1,3,3.1c0.4,0.4,0.9,0.9,1.4,1.4c0.5,0.5,1.4,1.5,2.8,2.9c0.6,0.7,1.1,1.2,1.4,1.5c0.3,0.3,0.5,0.5,0.6,0.6h0.1
		l-0.3-12.6c0-0.8-0.1-1.4-0.2-1.8c-0.1-0.3-0.4-0.6-0.7-0.7c-0.2-0.1-0.4-0.1-0.6-0.1c-0.3,0-0.5,0-0.9,0c-0.3,0-0.5-0.1-0.5-0.3
		c0-0.1,0.1-0.2,0.2-0.2c0.1,0,0.3-0.1,0.5-0.1c0.6,0,1.4,0,2.4,0.1c0.5,0,0.8,0,1,0c0.1,0,0.2,0,0.5,0c0.9,0,1.6-0.1,2.3-0.1
		c0.2,0,0.4,0,0.5,0.1c0.1,0,0.2,0.1,0.2,0.2c0,0.2-0.2,0.3-0.5,0.3c-0.3,0-0.6,0-0.8,0.1c-0.4,0.1-0.7,0.3-0.8,0.7
		c-0.1,0.3-0.2,0.9-0.2,1.7L155,38.1c0,0.6-0.1,0.9-0.4,0.9c-0.1,0-0.3-0.1-0.4-0.2c-0.2-0.1-0.3-0.3-0.5-0.5c-0.4-0.4-1-1-1.8-1.8
		c-0.8-0.8-1.7-1.7-2.7-2.7c-1.8-1.8-3.1-3.1-3.7-3.7c-0.6-0.6-1.2-1.2-1.8-1.8s-1.2-1.2-1.6-1.7c-0.5-0.5-1-1.1-1.6-1.7
		c-0.6-0.6-0.9-1-1.1-1.2c-0.4-0.4-0.6-0.7-0.6-0.7h-0.1L138.9,34.8z M125.2,29.8c0.1,0,0.1-0.1,0.1-0.2l-2.5-7v0
		c0-0.2-0.1-0.2-0.1-0.2c-0.1,0-0.1,0.1-0.2,0.3l-2.6,6.9c0,0.1,0,0.2,0.1,0.2H125.2z M119.4,31.2c-0.1,0-0.2,0.1-0.3,0.2l-1.5,4
		c-0.3,0.7-0.4,1.3-0.4,1.7c0,0.3,0.1,0.5,0.3,0.6c0.2,0.2,0.5,0.2,0.9,0.2h0.4c0.3,0,0.4,0.1,0.4,0.2c0,0.2-0.2,0.3-0.5,0.3
		c-0.4,0-0.9,0-1.5,0c-0.7,0-1.2-0.1-1.5-0.1c-0.1,0-0.3,0-0.6,0c-0.3,0-0.7,0-1.2,0c-0.5,0-1,0-1.5,0c-0.4,0-0.5-0.1-0.5-0.3
		c0-0.2,0.1-0.2,0.3-0.2c0.3,0,0.6,0,0.9-0.1c0.6-0.1,1.1-0.3,1.4-0.7c0.3-0.4,0.7-1,1-1.8l7.1-17.7c0.2-0.4,0.3-0.7,0.4-0.9
		c0.1-0.2,0.2-0.2,0.4-0.2c0.2,0,0.4,0.3,0.7,0.9c0.1,0.3,0.4,1,0.8,2.1c0.4,1.1,1,2.5,1.7,4.3c1.6,4,2.5,6.2,2.7,6.7
		c0.2,0.4,0.4,1.1,0.7,1.9c0.3,0.8,0.7,1.6,1,2.5c0.5,1.1,0.9,1.9,1.3,2.3c0.4,0.4,0.8,0.7,1.2,0.8c0.4,0.1,0.8,0.1,1.2,0.1
		c0.2,0,0.4,0.1,0.4,0.2c0,0.1-0.1,0.2-0.3,0.2c-0.2,0-0.5,0.1-1,0.1c-0.8,0-1.7,0-2.5,0c-0.8,0-1.8,0-2.9-0.1h-0.1
		c-0.5,0-0.7-0.1-0.7-0.2c0-0.2,0.1-0.2,0.4-0.3c0.2-0.1,0.3-0.2,0.3-0.4c0-0.1,0-0.2-0.1-0.2l-2.3-6c-0.1-0.1-0.2-0.2-0.3-0.2
		H119.4z M108.2,30.7c-0.4-1-1.1-1.9-2.1-2.5c-0.3-0.2-0.6-0.4-1-0.5c-0.4-0.1-0.8-0.2-1.4-0.2c-0.3,0-0.7,0-1.2,0
		c-0.1,0-0.2,0.1-0.2,0.2v6.7c0,1,0.1,1.6,0.2,1.9c0.1,0.3,0.4,0.6,0.8,0.8c0.3,0.1,0.7,0.2,1,0.3c0.3,0,0.7,0.1,1.1,0.1
		c0.4,0,0.7-0.1,1.1-0.2c0.4-0.1,0.8-0.3,1.1-0.6c0.3-0.3,0.6-0.6,0.8-1.1c0.2-0.5,0.3-1.1,0.3-1.7
		C108.8,32.8,108.6,31.8,108.2,30.7z M102.3,26c0,0.2,0.1,0.3,0.2,0.3c0.3,0.1,0.7,0.1,1.3,0.1c0.5,0,0.9,0,1.2-0.1
		c0.3-0.1,0.6-0.2,0.8-0.4c0.8-0.6,1.2-1.6,1.2-3c0-0.5-0.1-1-0.2-1.5c-0.1-0.5-0.4-1-0.7-1.4c-0.3-0.4-0.7-0.8-1.1-1.1
		c-0.4-0.3-1-0.4-1.5-0.4c-0.4,0-0.7,0-0.9,0.1c-0.2,0.1-0.3,0.2-0.3,0.5V26z M99,25.5c0-2.3,0-3.7,0-4.3c0-0.6,0-1.2-0.1-1.6
		c0-0.5-0.1-0.9-0.3-1.1c-0.2-0.2-0.5-0.4-0.9-0.5c-0.2-0.1-0.6-0.1-1.1-0.1c-0.3,0-0.5-0.1-0.5-0.3s0.2-0.3,0.6-0.3
		c0.4,0,0.8,0,1.2,0c0.4,0,0.9,0,1.6,0c0.7,0,1,0,1.1,0c0.5,0,1.2,0,2-0.1c0.6,0,1.1,0,1.4,0c1.2,0,2.2,0.1,3,0.4
		c0.8,0.3,1.4,0.6,1.9,1.1c0.4,0.4,0.7,0.9,0.9,1.4c0.2,0.5,0.2,0.9,0.2,1.4c0,1.1-0.2,2-0.7,2.7c-0.5,0.8-1.2,1.5-2.1,2.2
		c0.6,0.2,1.2,0.5,1.8,0.8c0.6,0.4,1.1,0.8,1.6,1.3c0.5,0.5,0.9,1.1,1.2,1.8c0.3,0.7,0.5,1.4,0.5,2.2c0,0.8-0.2,1.5-0.5,2.3
		c-0.3,0.7-0.8,1.4-1.4,2c-0.6,0.6-1.4,1-2.4,1.4c-0.9,0.3-2.1,0.5-3.3,0.5c-0.2,0-0.4,0-0.6,0c-0.3,0-0.7,0-1.2-0.1
		c-0.8,0-1.3-0.1-1.5-0.1c-0.3,0-0.5,0-0.7,0c-0.2,0-0.6,0-1.3,0c-1.1,0-1.8,0.1-2.2,0.1c-0.4,0-0.6-0.1-0.6-0.3
		c0-0.2,0.2-0.2,0.5-0.2c0.3,0,0.7,0,1-0.1c0.3-0.1,0.4-0.2,0.5-0.5c0.1-0.2,0.2-0.6,0.3-1.1c0.1-0.5,0.1-1.3,0.1-2.2
		c0-0.9,0-2.2,0-3.8V25.5z M86.9,25.5c0-2.3,0-3.7,0-4.3c0-0.6,0-1.2-0.1-1.6c-0.1-0.9-0.4-1.4-1-1.6c-0.3-0.1-0.6-0.1-1-0.1
		c-0.3,0-0.5-0.1-0.5-0.3c0-0.2,0.2-0.2,0.7-0.2c0.4,0,1,0,2.1,0.1c0.8,0,1.3,0,1.6,0c0.2,0,0.7,0,1.4,0c1,0,1.7-0.1,2.1-0.1
		c0.4,0,0.6,0.1,0.6,0.2c0,0.2-0.1,0.3-0.5,0.3c-0.2,0-0.5,0-0.8,0.1c-0.4,0.1-0.6,0.2-0.8,0.5c-0.1,0.2-0.2,0.6-0.3,1.1
		c0,0.5-0.1,1-0.1,1.6c0,0.6,0,2.1,0,4.3v5c0,1.7,0,3.1,0,4c0,0.9,0,1.6,0.1,2.2c0.1,0.4,0.2,0.8,0.3,1c0.2,0.2,0.4,0.4,0.8,0.4
		c0.2,0,0.4,0,0.7,0.1c0.3,0,0.5,0,0.7,0c0.3,0,0.5,0.1,0.5,0.2c0,0.2-0.2,0.3-0.5,0.3c-0.8,0-1.8,0-3.1-0.1c-0.6,0-1,0-1.3,0
		c-0.2,0-0.6,0-1.3,0c-1.1,0-1.8,0.1-2.2,0.1c-0.4,0-0.6-0.1-0.6-0.3c0-0.2,0.2-0.2,0.5-0.2c0.3,0,0.7,0,1-0.1
		c0.5-0.1,0.7-0.6,0.8-1.4c0.1-0.5,0.1-1.3,0.1-2.2c0-0.9,0-2.2,0-4V25.5z M69.7,27.7c0,0.3,0.1,0.4,0.3,0.5c0.3,0.1,0.6,0.2,1,0.2
		c0.4,0,0.8,0.1,1.1,0.1c0.5,0,0.9,0,1.2-0.1c0.3-0.1,0.5-0.2,0.8-0.4c0.5-0.4,0.9-0.9,1.2-1.6c0.3-0.7,0.5-1.6,0.5-2.6
		c0-0.9-0.1-1.7-0.4-2.4c-0.3-0.7-0.6-1.2-1.1-1.6c-0.4-0.4-0.9-0.7-1.4-0.9c-0.5-0.2-1-0.3-1.4-0.3c-0.8,0-1.2,0-1.5,0.1
		c-0.2,0.1-0.3,0.2-0.3,0.4V27.7z M66.4,25.5c0-2.3,0-3.7,0-4.3c0-0.6,0-1.2-0.1-1.6c0-0.5-0.1-0.9-0.3-1.1
		c-0.2-0.2-0.5-0.4-0.9-0.5c-0.2-0.1-0.6-0.1-1.1-0.1c-0.3,0-0.5-0.1-0.5-0.3s0.2-0.3,0.6-0.3c0.4,0,0.8,0,1.1,0c0.3,0,0.9,0,1.6,0
		c0.7,0,1,0,1.1,0c0.3,0,1,0,2.1-0.1c1,0,1.6,0,1.9,0c1.1,0,2,0.1,2.9,0.3c0.9,0.2,1.6,0.5,2.3,1c0.5,0.3,0.9,0.8,1.3,1.5
		c0.4,0.7,0.6,1.5,0.6,2.3c0,1.1-0.3,2.2-0.8,3.2c-0.6,1-1.5,2-2.9,3.2l1,1.2c2.5,3.1,4.2,5.2,5.1,6.2c0.7,0.7,1.3,1.2,1.8,1.4
		c0.5,0.3,1,0.4,1.4,0.5h0c0.3,0.1,0.6,0.1,0.8,0.1c0.2,0,0.3,0.1,0.3,0.2c0,0.2-0.2,0.3-0.5,0.3h-2.7c-0.8,0-1.4,0-1.8-0.1
		c-0.4-0.1-0.8-0.2-1.2-0.4c-0.6-0.3-1.1-0.8-1.7-1.4c-0.6-0.6-1.3-1.5-2.2-2.8c-0.4-0.5-0.9-1.2-1.4-2c-0.5-0.7-0.9-1.2-1-1.4
		c-0.1-0.2-0.3-0.4-0.4-0.5c-0.1-0.1-0.3-0.2-0.5-0.2l-2.4-0.1c-0.2,0-0.2,0.1-0.2,0.2v0.4c0,1.7,0,3,0,3.9c0,0.9,0.1,1.6,0.1,2.2
		c0.1,0.5,0.2,0.8,0.3,1.1c0.1,0.3,0.4,0.4,0.8,0.5c0.2,0,0.5,0,0.7,0.1c0.3,0,0.5,0,0.7,0c0.2,0,0.3,0.1,0.3,0.2
		c0,0.2-0.2,0.3-0.6,0.3c-0.4,0-0.8,0-1.2,0c-0.4,0-1.1,0-2.1,0c-0.5,0-0.8,0-0.9,0c-0.2,0-0.5,0-1.2,0c-1,0-1.8,0.1-2.3,0.1
		c-0.4,0-0.6-0.1-0.6-0.3c0-0.2,0.2-0.2,0.5-0.2c0.3,0,0.7,0,1-0.1c0.3-0.1,0.4-0.2,0.5-0.5c0.1-0.2,0.2-0.6,0.3-1.1
		c0.1-0.5,0.1-1.3,0.1-2.2c0-0.9,0-2.2,0-3.8V25.5z M49.2,38.3c-1.6-0.5-3-1.3-4.3-2.3c-1.3-1.1-2.2-2.4-2.7-3.8
		c-0.5-1.4-0.8-2.9-0.8-4.5c0-0.5,0.1-1.1,0.2-1.8c0.1-0.6,0.3-1.3,0.5-2c0.2-0.7,0.6-1.4,1-2.1c0.4-0.7,1-1.3,1.6-1.9
		c1.1-1,2.3-1.7,3.7-2.2c1.4-0.5,3.1-0.8,5.2-0.8c0.8,0,1.5,0,2.1,0.1c0.6,0,1.3,0.1,2,0.2c0.3,0,0.8,0.1,1.4,0.3
		c0.6,0.1,1.1,0.2,1.4,0.2c0.3,0,0.4,0.1,0.4,0.3c0,0.1,0,0.2,0,0.3c-0.1,0.4-0.1,0.8-0.1,1.2c0,0.3,0,0.9,0,1.6
		c0,0.8,0,1.3-0.1,1.4c0,0.4-0.1,0.6-0.3,0.6c-0.2,0-0.3-0.2-0.3-0.6c0-0.5-0.1-0.9-0.3-1.4c-0.2-0.5-0.5-0.9-0.8-1.2
		c-0.5-0.5-1.2-0.9-2.3-1.3c-1-0.3-2.2-0.5-3.4-0.5c-1.2,0-2.2,0.1-3.1,0.4C49.4,19,48.7,19.5,48,20c-1,0.9-1.6,1.9-2,3.2
		c-0.4,1.2-0.6,2.6-0.6,4.1c0,1.6,0.3,3,0.8,4.3c0.5,1.3,1.3,2.3,2.1,3.2c0.9,0.8,1.8,1.5,2.9,1.9c1,0.4,2.1,0.6,3,0.6
		c1.3,0,2.4-0.1,3.2-0.3c0.8-0.2,1.4-0.6,2-1.3c0.2-0.2,0.4-0.5,0.6-0.9c0.2-0.4,0.3-0.7,0.4-1c0-0.2,0.1-0.4,0.1-0.5
		c0-0.1,0.1-0.1,0.2-0.1c0.2,0,0.3,0.1,0.3,0.4c0,0.1,0,0.3-0.1,0.6c0,0.3-0.1,0.7-0.1,1c-0.1,0.4-0.1,0.7-0.2,1.1
		c-0.1,0.4-0.2,0.7-0.2,1c-0.1,0.2-0.2,0.4-0.2,0.5c-0.1,0.1-0.2,0.2-0.5,0.3c-0.5,0.2-1.3,0.4-2.2,0.5c-0.9,0.1-1.9,0.2-2.8,0.2
		C52.6,39,50.8,38.7,49.2,38.3z M29.2,38.8c-0.7-0.1-1.3-0.3-1.9-0.6c-0.2-0.1-0.4-0.2-0.4-0.3c-0.1-0.1-0.1-0.3-0.1-0.6
		c0-0.6,0-1.2,0-1.8c0-0.6,0.1-1.2,0.1-1.8v-0.1c0-0.5,0.2-0.7,0.3-0.7c0.1,0,0.2,0,0.2,0.1c0,0.1,0.1,0.2,0.1,0.4
		c0,0.2,0,0.4,0.1,0.6c0,0.3,0.1,0.5,0.2,0.8c0.3,1,0.8,1.7,1.5,2.2c0.7,0.5,1.6,0.7,2.5,0.7c1.2,0,2.1-0.3,2.8-1
		c0.7-0.7,1-1.4,1-2.2c0-0.8-0.2-1.5-0.6-2.2c-0.4-0.7-1.1-1.5-2.2-2.3l-1.3-1c-1.5-1.2-2.6-2.3-3.2-3.4c-0.6-1.1-1-2.2-1-3.3
		c0-1.6,0.6-2.8,1.8-3.8c1.2-1,2.8-1.5,4.7-1.5c0.8,0,1.5,0,2.1,0.1c0.6,0.1,1.1,0.2,1.6,0.3c0.3,0.1,0.4,0.2,0.4,0.3
		c0,0.1,0,0.2,0,0.5c0,0.4,0,0.8-0.1,1.3c0,0.5,0,1,0,1.6c0,0.6-0.1,0.8-0.3,0.8c-0.2,0-0.3-0.2-0.3-0.5c0-0.2-0.1-0.5-0.2-0.8
		c-0.1-0.4-0.3-0.7-0.6-1c-0.3-0.4-0.7-0.7-1.2-1c-0.5-0.3-1.1-0.4-1.9-0.4c-1,0-1.8,0.3-2.4,0.8c-0.6,0.5-0.9,1.2-0.9,2.1
		c0,0.7,0.2,1.3,0.6,1.9c0.4,0.6,1.2,1.3,2.4,2.2l0.8,0.6c1.7,1.3,2.9,2.5,3.6,3.6c0.7,1.1,1,2.3,1,3.6c0,0.9-0.2,1.8-0.6,2.7
		c-0.4,0.9-1.1,1.6-2,2.2c-0.7,0.4-1.4,0.7-2.1,0.9C33,38.9,32.3,39,31.4,39C30.6,39,29.9,38.9,29.2,38.8z M11.8,25.5
		c0-2.3,0-3.7,0-4.3c0-0.6,0-1.2-0.1-1.6c0-0.5-0.1-0.9-0.3-1.1c-0.2-0.2-0.5-0.4-0.9-0.5c-0.2-0.1-0.6-0.1-1.1-0.1
		c-0.3,0-0.5-0.1-0.5-0.3s0.2-0.3,0.6-0.3c0.5,0,1.3,0,2.6,0.1c0.7,0,1.2,0,1.4,0c4.3,0,6.7,0,7,0c0.6-0.1,1-0.1,1.2-0.2
		c0,0,0.1,0,0.2-0.1c0.1,0,0.2-0.1,0.3-0.1c0.1,0,0.2,0.1,0.2,0.3c0,0,0,0.1,0,0.3c-0.1,0.5-0.2,1-0.2,1.6c0,0,0,0.2,0,0.6
		c0,0.3,0,0.5-0.1,0.7c0,0.2,0,0.4-0.1,0.5c0,0.2-0.1,0.3-0.3,0.3c-0.2,0-0.3-0.1-0.3-0.4c0-0.1,0-0.3,0-0.5c0-0.2-0.1-0.4-0.1-0.5
		c-0.1-0.3-0.3-0.5-0.5-0.7c-0.2-0.2-0.7-0.3-1.4-0.4c-0.1,0-0.3,0-0.6,0c-0.3,0-0.8,0-1.3,0c-0.9,0-1.5,0-2,0
		c-0.1,0-0.2,0.1-0.2,0.3v7.1c0,0.2,0.1,0.3,0.2,0.3c0.8,0,1.7,0,2.7,0c0.9,0,1.5,0,1.8,0c0.7-0.1,1.1-0.2,1.4-0.4l0-0.1
		c0.2-0.2,0.3-0.3,0.4-0.3c0.1,0,0.2,0.1,0.2,0.2c0,0,0,0.1,0,0.3c-0.1,0.5-0.2,1.1-0.2,1.8c0,0.2,0,0.6-0.1,1c0,0.4,0,0.7,0,0.9
		c0,0.2,0,0.3,0,0.4c0,0.1-0.1,0.1-0.2,0.1c-0.2,0-0.3-0.1-0.3-0.3c0-0.1,0-0.1,0-0.3c0-0.3,0-0.6-0.1-0.8c-0.1-0.3-0.2-0.5-0.5-0.7
		c-0.2-0.2-0.6-0.3-1.1-0.4c-0.1,0-0.3,0-0.7,0c-0.4,0-0.8,0-1.2,0c-0.9,0-1.6,0-2.1,0c-0.1,0-0.2,0.1-0.2,0.3v2.2v4.4
		c0,0.5,0.1,0.9,0.2,1.2c0.1,0.3,0.2,0.5,0.5,0.7c0.2,0.2,0.6,0.3,1,0.4c0.4,0.1,1,0.1,1.8,0.1c0.6,0,1.1,0,1.5-0.1
		c0.4,0,0.8-0.1,1.1-0.3c0.4-0.2,0.6-0.4,0.8-0.7c0.2-0.3,0.3-0.8,0.4-1.4c0.1-0.3,0.2-0.4,0.3-0.4c0.1,0,0.2,0,0.2,0.1
		c0,0.1,0,0.2,0,0.4c0,0.2,0,0.4,0,0.6c0,0.3-0.1,0.6-0.1,1c0,0.4-0.1,0.7-0.1,0.9c0,0.3-0.1,0.5-0.1,0.6c-0.1,0.4-0.2,0.6-0.4,0.6
		c-0.2,0.1-0.5,0.1-1.1,0.1c-1.1,0-2.1,0-2.8,0c-0.8,0-1.7,0-2.8-0.1c-1,0-1.7-0.1-2.1-0.1c-0.2,0-0.6,0-1.3,0
		c-1.1,0-1.8,0.1-2.2,0.1c-0.4,0-0.6-0.1-0.6-0.3c0-0.2,0.1-0.2,0.5-0.2c0.3,0,0.7,0,1-0.1c0.3-0.1,0.4-0.2,0.5-0.5
		c0.1-0.2,0.2-0.6,0.3-1.1c0.1-0.5,0.1-1.3,0.1-2.2c0-0.9,0-2.2,0-3.8V25.5z"/>
	<path class="st0" d="M155.6,47.6c20.8-0.1,34.1-0.1,34.1-0.2c0-0.1-13.3-0.2-34.1-0.2c-7.7-0.3-29.9-0.5-56-0.5
		c-26.1,0-48.3,0.2-56,0.5c-20.8,0.1-34.1,0.1-34.1,0.2c0,0.1,13.3,0.2,34.1,0.2c7.7,0.3,29.9,0.5,56,0.5
		C125.7,48.1,147.9,47.9,155.6,47.6z"/>
</g>
</svg>
