<?xml version="1.0" encoding="utf-8"?>
<!-- Generator: Adobe Illustrator 24.1.2, SVG Export Plug-In . SVG Version: 6.00 Build 0)  -->
<svg version="1.1" id="Layer_1" xmlns="http://www.w3.org/2000/svg" xmlns:xlink="http://www.w3.org/1999/xlink" x="0px" y="0px"
	 viewBox="0 0 100 60" style="enable-background:new 0 0 100 60;" xml:space="preserve">
<style type="text/css">
	.st0{fill:#FFFFFF;}
</style>
<g>
	<path class="st0" d="M90.7,41.7c0,0.1,0,0.2,0.1,0.3C91,42,91.2,42,91.4,42c0.2,0,0.4,0,0.6,0c0.3,0,0.5,0,0.7-0.1
		c0.1,0,0.3-0.1,0.4-0.2c0.3-0.2,0.5-0.5,0.7-0.9c0.2-0.4,0.3-0.9,0.3-1.4c0-0.5-0.1-1-0.2-1.3c-0.1-0.4-0.3-0.7-0.6-0.9
		c-0.2-0.2-0.5-0.4-0.8-0.5c-0.3-0.1-0.5-0.1-0.8-0.1c-0.4,0-0.7,0-0.8,0.1c-0.1,0-0.1,0.1-0.1,0.2V41.7z M88.9,40.4
		c0-1.2,0-2,0-2.4s0-0.6,0-0.9c0-0.3-0.1-0.5-0.2-0.6c-0.1-0.1-0.3-0.2-0.5-0.3c-0.1,0-0.3,0-0.6,0c-0.2,0-0.3,0-0.3-0.1
		c0-0.1,0.1-0.1,0.3-0.1c0.2,0,0.4,0,0.6,0c0.2,0,0.5,0,0.9,0c0.4,0,0.6,0,0.6,0c0.2,0,0.6,0,1.1,0c0.5,0,0.9,0,1,0
		c0.6,0,1.1,0,1.6,0.1c0.5,0.1,0.9,0.3,1.3,0.5c0.3,0.2,0.5,0.5,0.7,0.8c0.2,0.4,0.3,0.8,0.3,1.3c0,0.6-0.2,1.2-0.5,1.7
		c-0.3,0.5-0.8,1.1-1.6,1.7l0.5,0.7c1.3,1.7,2.3,2.8,2.8,3.4c0.4,0.4,0.7,0.6,1,0.8c0.3,0.1,0.5,0.2,0.7,0.3h0c0.2,0,0.3,0,0.4,0
		c0.1,0,0.2,0,0.2,0.1c0,0.1-0.1,0.2-0.3,0.2h-1.5c-0.4,0-0.8,0-1-0.1c-0.2,0-0.4-0.1-0.7-0.2c-0.3-0.2-0.6-0.4-0.9-0.8
		c-0.3-0.3-0.7-0.8-1.2-1.5c-0.2-0.3-0.5-0.6-0.8-1.1c-0.3-0.4-0.5-0.7-0.5-0.8c-0.1-0.1-0.1-0.2-0.2-0.3c-0.1-0.1-0.2-0.1-0.3-0.1
		l-1.3,0c-0.1,0-0.1,0-0.1,0.1v0.2c0,0.9,0,1.6,0,2.1c0,0.5,0,0.9,0.1,1.2c0,0.3,0.1,0.5,0.2,0.6c0.1,0.1,0.2,0.2,0.4,0.3
		c0.1,0,0.3,0,0.4,0c0.1,0,0.3,0,0.4,0c0.1,0,0.2,0,0.2,0.1c0,0.1-0.1,0.2-0.3,0.2s-0.4,0-0.6,0c-0.2,0-0.6,0-1.1,0
		c-0.3,0-0.4,0-0.5,0c-0.1,0-0.3,0-0.6,0c-0.6,0-1,0-1.2,0c-0.2,0-0.3-0.1-0.3-0.2c0-0.1,0.1-0.1,0.2-0.1c0.2,0,0.4,0,0.6-0.1
		c0.1,0,0.2-0.1,0.3-0.2c0.1-0.1,0.1-0.3,0.1-0.6c0-0.3,0.1-0.7,0.1-1.2c0-0.5,0-1.2,0-2.1V40.4z M79.6,40.4c0-1.2,0-2,0-2.4
		s0-0.6,0-0.9c0-0.3-0.1-0.5-0.2-0.6c-0.1-0.1-0.3-0.2-0.5-0.3c-0.1,0-0.3,0-0.6,0c-0.2,0-0.3,0-0.3-0.1c0-0.1,0.1-0.1,0.3-0.1
		c0.3,0,0.7,0,1.4,0c0.4,0,0.7,0,0.8,0c2.4,0,3.6,0,3.8,0c0.3,0,0.6-0.1,0.7-0.1c0,0,0.1,0,0.1,0c0.1,0,0.1,0,0.2,0
		c0.1,0,0.1,0,0.1,0.1c0,0,0,0.1,0,0.1c-0.1,0.3-0.1,0.5-0.1,0.9c0,0,0,0.1,0,0.3c0,0.1,0,0.3,0,0.4c0,0.1,0,0.2,0,0.3
		c0,0.1-0.1,0.2-0.2,0.2c-0.1,0-0.1-0.1-0.1-0.2c0-0.1,0-0.2,0-0.3c0-0.1,0-0.2-0.1-0.3c-0.1-0.2-0.2-0.3-0.3-0.4
		c-0.1-0.1-0.4-0.2-0.7-0.2c-0.1,0-0.2,0-0.3,0c-0.2,0-0.4,0-0.7,0c-0.5,0-0.8,0-1.1,0c-0.1,0-0.1,0.1-0.1,0.2v3.9
		c0,0.1,0,0.2,0.1,0.2c0.5,0,0.9,0,1.5,0c0.5,0,0.8,0,1,0c0.4,0,0.6-0.1,0.7-0.2l0,0c0.1-0.1,0.2-0.2,0.2-0.2c0.1,0,0.1,0,0.1,0.1
		c0,0,0,0.1,0,0.1c-0.1,0.3-0.1,0.6-0.1,1c0,0.1,0,0.3,0,0.5c0,0.2,0,0.4,0,0.5c0,0.1,0,0.2,0,0.2c0,0.1-0.1,0.1-0.1,0.1
		c-0.1,0-0.1,0-0.1-0.1c0,0,0-0.1,0-0.1c0-0.2,0-0.3,0-0.4c0-0.2-0.1-0.3-0.3-0.4c-0.1-0.1-0.3-0.2-0.6-0.2c-0.1,0-0.2,0-0.4,0
		c-0.2,0-0.4,0-0.7,0c-0.5,0-0.9,0-1.1,0c-0.1,0-0.1,0.1-0.1,0.2v1.2v2.4c0,0.3,0,0.5,0.1,0.7c0,0.2,0.1,0.3,0.3,0.4
		c0.1,0.1,0.3,0.2,0.5,0.2c0.2,0,0.6,0.1,1,0.1c0.3,0,0.6,0,0.8,0c0.2,0,0.4-0.1,0.6-0.2c0.2-0.1,0.3-0.2,0.5-0.4
		c0.1-0.2,0.2-0.4,0.2-0.7c0-0.2,0.1-0.2,0.2-0.2c0.1,0,0.1,0,0.1,0.1c0,0,0,0.1,0,0.2c0,0.1,0,0.2,0,0.3s0,0.3-0.1,0.5
		c0,0.2,0,0.4-0.1,0.5c0,0.1,0,0.2-0.1,0.3c-0.1,0.2-0.1,0.3-0.2,0.3c-0.1,0-0.3,0.1-0.6,0.1c-0.6,0-1.1,0-1.6,0c-0.4,0-0.9,0-1.5,0
		c-0.5,0-0.9,0-1.2,0c-0.1,0-0.3,0-0.7,0c-0.6,0-1,0-1.2,0c-0.2,0-0.3-0.1-0.3-0.2c0-0.1,0.1-0.1,0.2-0.1c0.2,0,0.4,0,0.6-0.1
		c0.1,0,0.2-0.1,0.3-0.2c0.1-0.1,0.1-0.3,0.1-0.6c0-0.3,0.1-0.7,0.1-1.2c0-0.5,0-1.2,0-2.1V40.4z M66.2,45.5c0,0.6,0.1,1,0.2,1.2
		c0.1,0.3,0.2,0.4,0.4,0.5c0.2,0.1,0.5,0.1,0.8,0.1c0.2,0,0.3,0,0.3,0.1c0,0.1-0.1,0.2-0.4,0.2c-0.4,0-0.9,0-1.5,0
		c-0.2,0-0.3,0-0.4,0c0,0-0.1,0-0.3,0c-0.1,0-0.4,0-0.6,0c-0.3,0-0.5,0-0.8,0c-0.2,0-0.3-0.1-0.3-0.2c0-0.1,0.1-0.1,0.2-0.1
		c0.3,0,0.5,0,0.7-0.1c0.2-0.1,0.3-0.2,0.4-0.5C65,46.5,65,46,65,45.3l0.1-9.1c0-0.3,0.1-0.5,0.2-0.5c0.1,0,0.2,0.1,0.4,0.3
		c0.1,0.1,0.1,0.1,0.1,0.2c0,0,0.2,0.2,0.5,0.6c0.4,0.4,0.7,0.8,1.1,1.2c0.4,0.4,0.9,0.9,1.4,1.5c0.6,0.6,1.1,1.1,1.7,1.7
		c0.2,0.2,0.5,0.5,0.8,0.8c0.3,0.3,0.8,0.8,1.5,1.6c0.3,0.4,0.6,0.6,0.8,0.8c0.2,0.2,0.3,0.3,0.3,0.3h0.1L74,37.7
		c0-0.5-0.1-0.8-0.1-1c-0.1-0.2-0.2-0.3-0.4-0.4c-0.1,0-0.2-0.1-0.3-0.1c-0.1,0-0.3,0-0.5,0c-0.2,0-0.2,0-0.2-0.1
		c0-0.1,0-0.1,0.1-0.1c0.1,0,0.2,0,0.3,0c0.3,0,0.8,0,1.3,0c0.3,0,0.4,0,0.5,0c0,0,0.1,0,0.3,0c0.5,0,0.9,0,1.2,0c0.1,0,0.2,0,0.3,0
		c0.1,0,0.1,0.1,0.1,0.1c0,0.1-0.1,0.1-0.3,0.1c-0.2,0-0.3,0-0.5,0c-0.2,0.1-0.4,0.2-0.4,0.4c-0.1,0.2-0.1,0.5-0.1,0.9L75,47.3
		c0,0.3-0.1,0.5-0.2,0.5c-0.1,0-0.1,0-0.2-0.1c-0.1-0.1-0.2-0.1-0.3-0.3c-0.2-0.2-0.6-0.6-1-1c-0.4-0.4-0.9-0.9-1.5-1.5
		c-1-1-1.7-1.7-2-2c-0.3-0.3-0.6-0.6-1-1c-0.3-0.3-0.6-0.7-0.9-1c-0.3-0.3-0.6-0.6-0.9-0.9c-0.3-0.3-0.5-0.5-0.6-0.6
		c-0.2-0.2-0.3-0.4-0.3-0.4h0L66.2,45.5z M58.8,42.8C58.8,42.8,58.8,42.8,58.8,42.8l-1.3-3.9v0c0-0.1,0-0.1-0.1-0.1
		c0,0-0.1,0-0.1,0.1l-1.4,3.8c0,0.1,0,0.1,0.1,0.1H58.8z M55.6,43.6c-0.1,0-0.1,0-0.1,0.1l-0.8,2.2c-0.2,0.4-0.2,0.7-0.2,0.9
		c0,0.2,0,0.3,0.1,0.4c0.1,0.1,0.3,0.1,0.5,0.1h0.2c0.2,0,0.2,0,0.2,0.1c0,0.1-0.1,0.2-0.3,0.2c-0.2,0-0.5,0-0.8,0
		c-0.4,0-0.7,0-0.8,0c0,0-0.1,0-0.3,0c-0.2,0-0.4,0-0.7,0c-0.3,0-0.6,0-0.8,0c-0.2,0-0.3-0.1-0.3-0.2c0-0.1,0.1-0.1,0.2-0.1
		c0.2,0,0.3,0,0.5,0c0.3,0,0.6-0.2,0.8-0.4c0.2-0.2,0.4-0.6,0.5-1l3.9-9.7c0.1-0.2,0.2-0.4,0.2-0.5c0.1-0.1,0.1-0.1,0.2-0.1
		c0.1,0,0.2,0.2,0.4,0.5c0.1,0.2,0.2,0.5,0.5,1.1c0.2,0.6,0.5,1.4,0.9,2.3c0.9,2.2,1.4,3.4,1.5,3.7c0.1,0.2,0.2,0.6,0.4,1
		c0.2,0.4,0.4,0.9,0.6,1.3c0.3,0.6,0.5,1,0.7,1.3c0.2,0.2,0.4,0.4,0.6,0.4c0.2,0,0.4,0.1,0.6,0.1c0.1,0,0.2,0,0.2,0.1
		c0,0.1,0,0.1-0.1,0.1c-0.1,0-0.3,0-0.6,0c-0.5,0-0.9,0-1.3,0c-0.4,0-1,0-1.6,0h-0.1c-0.3,0-0.4-0.1-0.4-0.1c0-0.1,0.1-0.1,0.2-0.1
		c0.1,0,0.2-0.1,0.2-0.2c0,0,0-0.1,0-0.1l-1.2-3.3c0-0.1-0.1-0.1-0.2-0.1H55.6z M47.4,36.8l-2.3,0.1c-0.5,0-0.8,0.1-1,0.1
		c-0.2,0.1-0.4,0.2-0.5,0.3c-0.1,0.2-0.2,0.4-0.3,0.5c0,0.1-0.1,0.2-0.2,0.2c-0.1,0-0.1-0.1-0.1-0.2c0-0.1,0-0.2,0-0.3
		c0-0.2,0.1-0.4,0.1-0.6c0-0.2,0.1-0.4,0.1-0.6c0-0.2,0.1-0.2,0.1-0.3c0-0.2,0.1-0.3,0.2-0.3c0,0,0.1,0,0.2,0
		c0.2,0.1,0.3,0.1,0.5,0.1c0.2,0,0.5,0,0.7,0.1c0.3,0,0.5,0,0.8,0h6.1c0.3,0,0.6,0,0.8,0c0.2,0,0.4-0.1,0.6-0.1c0.1,0,0.1,0,0.2,0
		c0.1,0,0.1,0.1,0.1,0.3c0,0.1,0,0.4,0,0.8c0,0.5,0,0.8,0,1c0,0.2-0.1,0.2-0.1,0.2c-0.1,0-0.2-0.1-0.2-0.3l0-0.2
		c0-0.2-0.2-0.4-0.5-0.6c-0.3-0.2-0.7-0.3-1.4-0.3l-1.9,0v6.3c0,0.9,0,1.6,0,2.1c0,0.5,0,0.9,0.1,1.2c0,0.2,0.1,0.4,0.2,0.6
		c0.1,0.1,0.2,0.2,0.4,0.3c0.1,0,0.2,0,0.4,0c0.1,0,0.3,0,0.4,0c0.2,0,0.2,0,0.2,0.1c0,0.1-0.1,0.2-0.3,0.2c-0.4,0-1,0-1.7,0
		c-0.3,0-0.6,0-0.7,0c-0.1,0-0.3,0-0.7,0c-0.6,0-1,0-1.2,0c-0.2,0-0.3-0.1-0.3-0.2c0-0.1,0.1-0.1,0.2-0.1c0.2,0,0.4,0,0.6-0.1
		c0.1,0,0.2-0.1,0.3-0.3c0.1-0.1,0.1-0.3,0.1-0.6c0-0.3,0.1-0.7,0.1-1.2c0-0.5,0-1.2,0-2.1V36.8z M32.1,45.5c0,0.6,0.1,1,0.2,1.2
		c0.1,0.3,0.2,0.4,0.4,0.5c0.2,0.1,0.5,0.1,0.8,0.1c0.2,0,0.3,0,0.3,0.1c0,0.1-0.1,0.2-0.4,0.2c-0.4,0-0.9,0-1.5,0
		c-0.2,0-0.3,0-0.4,0c0,0-0.1,0-0.3,0c-0.1,0-0.4,0-0.6,0c-0.3,0-0.5,0-0.8,0c-0.2,0-0.3-0.1-0.3-0.2c0-0.1,0.1-0.1,0.2-0.1
		c0.3,0,0.5,0,0.7-0.1c0.2-0.1,0.3-0.2,0.4-0.5c0.1-0.3,0.1-0.7,0.1-1.4l0.1-9.1c0-0.3,0.1-0.5,0.2-0.5c0.1,0,0.2,0.1,0.4,0.3
		c0.1,0.1,0.1,0.1,0.1,0.2c0,0,0.2,0.2,0.5,0.6c0.4,0.4,0.7,0.8,1.1,1.2c0.4,0.4,0.9,0.9,1.4,1.5c0.6,0.6,1.1,1.1,1.7,1.7
		c0.2,0.2,0.5,0.5,0.8,0.8c0.3,0.3,0.8,0.8,1.5,1.6c0.3,0.4,0.6,0.6,0.8,0.8c0.2,0.2,0.3,0.3,0.3,0.3H40l-0.2-6.9
		c0-0.5-0.1-0.8-0.1-1c-0.1-0.2-0.2-0.3-0.4-0.4c-0.1,0-0.2-0.1-0.3-0.1c-0.1,0-0.3,0-0.5,0c-0.2,0-0.2,0-0.2-0.1
		c0-0.1,0-0.1,0.1-0.1c0.1,0,0.2,0,0.3,0c0.3,0,0.8,0,1.3,0c0.3,0,0.4,0,0.5,0c0,0,0.1,0,0.3,0c0.5,0,0.9,0,1.2,0c0.1,0,0.2,0,0.3,0
		c0.1,0,0.1,0.1,0.1,0.1c0,0.1-0.1,0.1-0.3,0.1c-0.2,0-0.3,0-0.5,0c-0.2,0.1-0.4,0.2-0.4,0.4c-0.1,0.2-0.1,0.5-0.1,0.9l-0.2,9.7
		c0,0.3-0.1,0.5-0.2,0.5c-0.1,0-0.1,0-0.2-0.1c-0.1-0.1-0.2-0.1-0.3-0.3c-0.2-0.2-0.6-0.6-1-1c-0.4-0.4-0.9-0.9-1.5-1.5
		c-1-1-1.7-1.7-2-2c-0.3-0.3-0.6-0.6-1-1c-0.3-0.3-0.6-0.7-0.9-1s-0.6-0.6-0.9-0.9c-0.3-0.3-0.5-0.5-0.6-0.6
		c-0.2-0.2-0.3-0.4-0.3-0.4h0L32.1,45.5z M17.8,40.4c0-1.2,0-2,0-2.4s0-0.6,0-0.9c0-0.3-0.1-0.5-0.2-0.6c-0.1-0.1-0.3-0.2-0.5-0.3
		c-0.1,0-0.3,0-0.6,0c-0.2,0-0.3,0-0.3-0.1c0-0.1,0.1-0.1,0.3-0.1c0.3,0,0.8,0,1.4,0c0.4,0,0.7,0,0.8,0c0.1,0,0.4,0,0.8,0
		c0.6,0,0.9,0,1.1,0c0.2,0,0.3,0,0.3,0.1c0,0.1-0.1,0.1-0.2,0.1c-0.1,0-0.3,0-0.4,0c-0.2,0-0.3,0.1-0.4,0.3
		c-0.1,0.1-0.1,0.3-0.1,0.6c0,0.3,0,0.6,0,0.9s0,1.1,0,2.4v2.2c0,1.1,0.1,1.9,0.3,2.4c0.2,0.6,0.5,1,0.9,1.3
		c0.3,0.3,0.6,0.4,0.9,0.5c0.3,0.1,0.6,0.1,1,0.1c0.4,0,0.8-0.1,1.1-0.2c0.4-0.1,0.7-0.3,1-0.6c0.4-0.4,0.6-0.9,0.7-1.5
		c0.1-0.6,0.2-1.4,0.2-2.4v-1.9c0-1.2,0-2,0-2.4s0-0.6,0-0.9c0-0.3-0.1-0.5-0.2-0.6c-0.1-0.1-0.3-0.2-0.5-0.3c-0.1,0-0.1,0-0.2,0
		c-0.1,0-0.2,0-0.3,0c-0.2,0-0.3,0-0.3-0.1c0-0.1,0.1-0.1,0.3-0.1c0.3,0,0.6,0,0.9,0c0.3,0,0.6,0,0.9,0h0c0,0,0.2,0,0.4,0
		c0.2,0,0.4,0,0.7,0c0.3,0,0.5,0,0.6,0c0.2,0,0.3,0,0.3,0.1c0,0.1-0.1,0.1-0.3,0.1c-0.1,0-0.3,0-0.4,0c-0.2,0-0.3,0.1-0.4,0.3
		c-0.1,0.1-0.1,0.3-0.1,0.6c0,0.3,0,0.6,0,0.9s0,1.1,0,2.4v1.6c0,0.5,0,1-0.1,1.4c0,0.4-0.1,0.8-0.2,1.2c-0.1,0.4-0.2,0.8-0.4,1.1
		c-0.2,0.3-0.5,0.7-0.8,0.9c-0.5,0.4-1,0.7-1.5,0.9c-0.5,0.2-1.1,0.2-1.7,0.2c-0.3,0-0.5,0-0.8,0c-0.3,0-0.5-0.1-0.8-0.1
		c-0.3-0.1-0.6-0.2-0.9-0.3c-0.3-0.1-0.6-0.3-0.9-0.6c-0.4-0.4-0.8-0.9-1-1.5c-0.2-0.6-0.4-1.5-0.4-2.5V40.4z M3.6,36
		c0.1-0.3,0.1-0.4,0.3-0.4c0.1,0,0.1,0,0.2,0.1c0.1,0.1,0.1,0.2,0.2,0.4l4.2,8.7l4.2-8.8c0.1-0.2,0.2-0.4,0.3-0.4
		c0.1,0,0.2,0.2,0.3,0.5l1.4,9.5c0.1,0.5,0.2,0.9,0.3,1.1c0.1,0.2,0.3,0.4,0.5,0.4c0.3,0.1,0.6,0.2,1,0.2c0.2,0,0.2,0,0.2,0.1
		c0,0.1-0.1,0.2-0.4,0.2c-0.2,0-0.7,0-1.5,0c-0.5,0-0.8,0-1,0c-0.2,0-0.4,0-0.6,0c-0.2,0-0.3,0-0.4-0.1c-0.1,0-0.1-0.1-0.1-0.1
		c0-0.1,0.1-0.1,0.2-0.2c0.1,0,0.1-0.1,0.1-0.3c0-0.1,0-0.2,0-0.3L12,39.7h-0.1l-3.4,7c-0.2,0.4-0.3,0.6-0.4,0.7
		c-0.1,0.1-0.1,0.2-0.2,0.2c-0.1,0-0.2-0.2-0.5-0.7c0,0,0-0.1,0-0.1C7.1,46,6.8,45.4,6.6,45C6.4,44.6,6.2,44.3,6,44
		c-0.2-0.3-0.3-0.5-0.3-0.6c-0.1-0.1-0.2-0.4-0.4-0.9c-0.2-0.5-0.4-0.8-0.4-0.9c-0.2-0.5-0.4-0.8-0.5-1c-0.1-0.2-0.2-0.4-0.3-0.6
		H4.1L3.3,46c0,0.3,0,0.5,0,0.7c0,0.1,0,0.2,0.1,0.3c0.1,0.1,0.2,0.1,0.3,0.2c0.2,0.1,0.5,0.1,0.6,0.1c0.2,0,0.2,0,0.2,0.1
		c0,0.1-0.1,0.2-0.4,0.2c-0.3,0-0.6,0-1.1,0c-0.2,0-0.4,0-0.5,0c-0.1,0-0.3,0-0.6,0c-0.5,0-0.8,0-0.9,0c-0.2,0-0.3-0.1-0.3-0.2
		c0-0.1,0.1-0.1,0.2-0.1c0.2,0,0.3,0,0.5,0c0.2,0,0.3-0.2,0.4-0.4C2,46.7,2,46.4,2.1,46.1L3.6,36z"/>
	<path class="st0" d="M92.9,22C92.9,22,92.9,22,92.9,22l-1.2-3.7v0c0-0.1,0-0.1-0.1-0.1c0,0-0.1,0-0.1,0.1l-1.3,3.6
		c0,0.1,0,0.1,0.1,0.1H92.9z M89.9,22.7c-0.1,0-0.1,0-0.1,0.1L89,24.9c-0.1,0.4-0.2,0.7-0.2,0.9c0,0.1,0,0.3,0.1,0.3
		c0.1,0.1,0.2,0.1,0.5,0.1h0.2c0.1,0,0.2,0,0.2,0.1c0,0.1-0.1,0.1-0.2,0.1c-0.2,0-0.4,0-0.8,0c-0.4,0-0.6,0-0.8,0c0,0-0.1,0-0.3,0
		c-0.1,0-0.4,0-0.6,0c-0.3,0-0.5,0-0.8,0c-0.2,0-0.3,0-0.3-0.1c0-0.1,0.1-0.1,0.2-0.1c0.1,0,0.3,0,0.5,0c0.3,0,0.6-0.2,0.7-0.4
		c0.2-0.2,0.3-0.5,0.5-0.9l3.7-9.2c0.1-0.2,0.2-0.4,0.2-0.5c0.1-0.1,0.1-0.1,0.2-0.1c0.1,0,0.2,0.2,0.4,0.5c0.1,0.1,0.2,0.5,0.4,1.1
		c0.2,0.6,0.5,1.3,0.9,2.2c0.8,2.1,1.3,3.2,1.4,3.5c0.1,0.2,0.2,0.6,0.4,1c0.2,0.4,0.3,0.8,0.5,1.3c0.2,0.6,0.5,1,0.7,1.2
		c0.2,0.2,0.4,0.3,0.6,0.4c0.2,0,0.4,0.1,0.6,0.1c0.1,0,0.2,0,0.2,0.1c0,0.1,0,0.1-0.1,0.1c-0.1,0-0.3,0-0.5,0c-0.4,0-0.9,0-1.3,0
		c-0.4,0-0.9,0-1.5,0h-0.1c-0.3,0-0.4-0.1-0.4-0.1c0-0.1,0.1-0.1,0.2-0.1c0.1,0,0.2-0.1,0.2-0.2c0,0,0-0.1,0-0.1l-1.2-3.1
		c0-0.1-0.1-0.1-0.1-0.1H89.9z M83.1,19.7c0-1.2,0-1.9,0-2.3c0-0.3,0-0.6,0-0.8c0-0.5-0.2-0.8-0.5-0.8c-0.1,0-0.3-0.1-0.5-0.1
		c-0.2,0-0.2,0-0.2-0.1c0-0.1,0.1-0.1,0.4-0.1c0.2,0,0.5,0,1.1,0c0.4,0,0.7,0,0.8,0c0.1,0,0.4,0,0.7,0c0.5,0,0.9,0,1.1,0
		c0.2,0,0.3,0,0.3,0.1c0,0.1-0.1,0.1-0.2,0.1c-0.1,0-0.3,0-0.4,0c-0.2,0-0.3,0.1-0.4,0.2c-0.1,0.1-0.1,0.3-0.1,0.6
		c0,0.2,0,0.5,0,0.8c0,0.3,0,1.1,0,2.3v2.6c0,0.9,0,1.6,0,2.1c0,0.5,0,0.9,0.1,1.1c0,0.2,0.1,0.4,0.2,0.5c0.1,0.1,0.2,0.2,0.4,0.2
		c0.1,0,0.2,0,0.4,0c0.1,0,0.3,0,0.4,0c0.2,0,0.2,0,0.2,0.1c0,0.1-0.1,0.1-0.3,0.1c-0.4,0-0.9,0-1.6,0c-0.3,0-0.5,0-0.7,0
		c-0.1,0-0.3,0-0.7,0c-0.6,0-1,0-1.2,0c-0.2,0-0.3,0-0.3-0.1c0-0.1,0.1-0.1,0.2-0.1c0.2,0,0.4,0,0.5-0.1c0.2,0,0.4-0.3,0.4-0.7
		c0-0.3,0-0.7,0.1-1.1c0-0.5,0-1.2,0-2.1V19.7z M86.5,13.2c0,0,0,0.1,0,0.1c0,0.1,0,0.1-0.1,0.1h-0.1c-0.1,0-0.1,0-0.2,0
		c0,0-0.1,0-0.1,0c-0.1,0-0.1,0-0.1,0c-0.2,0-0.4,0.1-0.6,0.1c-0.2,0.1-0.5,0.1-0.7,0.2c-0.2,0.1-0.5,0.2-0.7,0.3
		c-0.2,0.1-0.4,0.2-0.5,0.2l-0.1,0c-0.1,0-0.2,0.1-0.2,0.1c-0.1,0-0.1,0-0.1-0.1c0,0,0-0.1,0.1-0.2c0.1-0.1,0.3-0.3,0.6-0.5
		c0.2-0.2,0.5-0.4,0.7-0.6c0.2-0.2,0.5-0.4,0.7-0.5c0.2-0.1,0.3-0.2,0.4-0.3c0.1-0.1,0.2-0.1,0.3-0.1c0.1,0,0.1,0.1,0.2,0.2
		C86.2,12.5,86.4,12.8,86.5,13.2z M70.4,24.6c0,0.5,0.1,0.9,0.1,1.2c0.1,0.2,0.2,0.4,0.4,0.5c0.2,0.1,0.4,0.1,0.8,0.1
		c0.2,0,0.2,0,0.2,0.1c0,0.1-0.1,0.1-0.3,0.1c-0.4,0-0.9,0-1.4,0c-0.2,0-0.3,0-0.4,0c0,0-0.1,0-0.2,0c-0.1,0-0.3,0-0.6,0
		c-0.3,0-0.5,0-0.7,0c-0.2,0-0.3,0-0.3-0.1c0-0.1,0.1-0.1,0.2-0.1c0.3,0,0.5,0,0.7-0.1c0.2-0.1,0.3-0.2,0.4-0.5
		c0.1-0.2,0.1-0.7,0.1-1.4l0.1-8.7c0-0.3,0.1-0.5,0.2-0.5c0.1,0,0.2,0.1,0.4,0.3c0,0.1,0.1,0.1,0.1,0.1c0,0,0.2,0.2,0.5,0.5
		c0.3,0.4,0.7,0.7,1.1,1.1s0.8,0.9,1.4,1.4c0.5,0.6,1.1,1.1,1.6,1.6c0.2,0.2,0.5,0.5,0.7,0.7c0.3,0.3,0.7,0.8,1.4,1.5
		c0.3,0.3,0.6,0.6,0.7,0.8c0.2,0.2,0.3,0.3,0.3,0.3h0.1l-0.1-6.6c0-0.4-0.1-0.7-0.1-0.9c-0.1-0.2-0.2-0.3-0.4-0.4
		c-0.1,0-0.2-0.1-0.3-0.1c-0.1,0-0.3,0-0.4,0c-0.2,0-0.2,0-0.2-0.1c0,0,0-0.1,0.1-0.1c0.1,0,0.2,0,0.3,0c0.3,0,0.7,0,1.3,0
		c0.2,0,0.4,0,0.5,0c0,0,0.1,0,0.3,0c0.5,0,0.8,0,1.2,0c0.1,0,0.2,0,0.3,0c0.1,0,0.1,0.1,0.1,0.1c0,0.1-0.1,0.1-0.3,0.1
		c-0.2,0-0.3,0-0.4,0c-0.2,0.1-0.3,0.2-0.4,0.4c-0.1,0.2-0.1,0.5-0.1,0.9l-0.2,9.2c0,0.3-0.1,0.5-0.2,0.5c-0.1,0-0.1,0-0.2-0.1
		c-0.1-0.1-0.2-0.1-0.3-0.2c-0.2-0.2-0.5-0.5-1-0.9c-0.4-0.4-0.9-0.9-1.4-1.4c-0.9-1-1.6-1.6-1.9-1.9c-0.3-0.3-0.6-0.6-0.9-0.9
		c-0.3-0.3-0.6-0.6-0.9-0.9c-0.3-0.3-0.5-0.6-0.8-0.9c-0.3-0.3-0.5-0.5-0.5-0.6c-0.2-0.2-0.3-0.3-0.3-0.4h0L70.4,24.6z M63.3,22
		C63.3,22,63.3,22,63.3,22L62,18.3v0c0-0.1,0-0.1-0.1-0.1c0,0-0.1,0-0.1,0.1l-1.3,3.6c0,0.1,0,0.1,0.1,0.1H63.3z M60.3,22.7
		c-0.1,0-0.1,0-0.1,0.1l-0.8,2.1c-0.1,0.4-0.2,0.7-0.2,0.9c0,0.1,0,0.3,0.1,0.3c0.1,0.1,0.2,0.1,0.5,0.1H60c0.1,0,0.2,0,0.2,0.1
		c0,0.1-0.1,0.1-0.2,0.1c-0.2,0-0.4,0-0.8,0c-0.4,0-0.6,0-0.8,0c0,0-0.1,0-0.3,0c-0.1,0-0.4,0-0.6,0c-0.3,0-0.5,0-0.8,0
		c-0.2,0-0.3,0-0.3-0.1c0-0.1,0.1-0.1,0.2-0.1c0.1,0,0.3,0,0.5,0c0.3,0,0.6-0.2,0.7-0.4c0.2-0.2,0.3-0.5,0.5-0.9l3.7-9.2
		c0.1-0.2,0.2-0.4,0.2-0.5c0.1-0.1,0.1-0.1,0.2-0.1c0.1,0,0.2,0.2,0.4,0.5c0.1,0.1,0.2,0.5,0.4,1.1c0.2,0.6,0.5,1.3,0.9,2.2
		c0.8,2.1,1.3,3.2,1.4,3.5c0.1,0.2,0.2,0.6,0.4,1c0.2,0.4,0.3,0.8,0.5,1.3c0.2,0.6,0.5,1,0.7,1.2c0.2,0.2,0.4,0.3,0.6,0.4
		c0.2,0,0.4,0.1,0.6,0.1c0.1,0,0.2,0,0.2,0.1c0,0.1,0,0.1-0.1,0.1c-0.1,0-0.3,0-0.5,0c-0.4,0-0.9,0-1.3,0c-0.4,0-0.9,0-1.5,0h-0.1
		c-0.3,0-0.4-0.1-0.4-0.1c0-0.1,0.1-0.1,0.2-0.1c0.1,0,0.2-0.1,0.2-0.2c0,0,0-0.1,0-0.1l-1.2-3.1c0-0.1-0.1-0.1-0.1-0.1H60.3z
		 M54.4,22.5c-0.2-0.5-0.6-1-1.1-1.3C53.2,21,53,21,52.8,20.9c-0.2-0.1-0.4-0.1-0.7-0.1c-0.2,0-0.4,0-0.6,0c-0.1,0-0.1,0-0.1,0.1
		v3.5c0,0.5,0,0.8,0.1,1c0.1,0.2,0.2,0.3,0.4,0.4c0.2,0.1,0.3,0.1,0.5,0.1c0.2,0,0.4,0,0.6,0c0.2,0,0.4,0,0.6-0.1
		c0.2-0.1,0.4-0.2,0.6-0.3c0.2-0.1,0.3-0.3,0.4-0.6c0.1-0.2,0.2-0.5,0.2-0.9C54.8,23.5,54.7,23,54.4,22.5z M51.4,20
		c0,0.1,0,0.1,0.1,0.2c0.1,0,0.4,0,0.7,0c0.3,0,0.5,0,0.6-0.1c0.2,0,0.3-0.1,0.4-0.2c0.4-0.3,0.6-0.8,0.6-1.5c0-0.3,0-0.5-0.1-0.8
		c-0.1-0.3-0.2-0.5-0.3-0.7c-0.2-0.2-0.3-0.4-0.6-0.5c-0.2-0.1-0.5-0.2-0.8-0.2c-0.2,0-0.4,0-0.5,0c-0.1,0-0.1,0.1-0.1,0.2V20z
		 M49.7,19.7c0-1.2,0-1.9,0-2.3c0-0.3,0-0.6,0-0.8c0-0.3-0.1-0.5-0.2-0.6c-0.1-0.1-0.2-0.2-0.5-0.3c-0.1,0-0.3,0-0.6,0
		c-0.2,0-0.2,0-0.2-0.1s0.1-0.1,0.3-0.1c0.2,0,0.4,0,0.6,0c0.2,0,0.5,0,0.8,0c0.3,0,0.5,0,0.6,0c0.3,0,0.6,0,1.1,0
		c0.3,0,0.6,0,0.7,0c0.6,0,1.1,0.1,1.6,0.2c0.4,0.1,0.7,0.3,1,0.6c0.2,0.2,0.4,0.5,0.5,0.7c0.1,0.2,0.1,0.5,0.1,0.7
		c0,0.5-0.1,1-0.4,1.4c-0.3,0.4-0.6,0.8-1.1,1.2c0.3,0.1,0.6,0.3,1,0.4c0.3,0.2,0.6,0.4,0.9,0.7c0.3,0.3,0.5,0.6,0.6,0.9
		c0.2,0.3,0.2,0.7,0.2,1.1c0,0.4-0.1,0.8-0.2,1.2c-0.2,0.4-0.4,0.7-0.7,1c-0.3,0.3-0.7,0.5-1.2,0.7c-0.5,0.2-1.1,0.3-1.7,0.3
		c-0.1,0-0.2,0-0.3,0c-0.1,0-0.3,0-0.6,0c-0.4,0-0.7,0-0.8,0c-0.1,0-0.3,0-0.4,0c-0.1,0-0.3,0-0.7,0c-0.6,0-1,0-1.2,0
		c-0.2,0-0.3,0-0.3-0.1c0-0.1,0.1-0.1,0.2-0.1c0.2,0,0.4,0,0.5-0.1c0.1,0,0.2-0.1,0.3-0.2c0.1-0.1,0.1-0.3,0.1-0.6
		c0-0.3,0-0.7,0.1-1.1c0-0.5,0-1.1,0-2V19.7z M43.4,19.7c0-1.2,0-1.9,0-2.3c0-0.3,0-0.6,0-0.8c0-0.5-0.2-0.8-0.5-0.8
		c-0.1,0-0.3-0.1-0.5-0.1c-0.2,0-0.2,0-0.2-0.1c0-0.1,0.1-0.1,0.4-0.1c0.2,0,0.5,0,1.1,0c0.4,0,0.7,0,0.8,0c0.1,0,0.4,0,0.7,0
		c0.5,0,0.9,0,1.1,0c0.2,0,0.3,0,0.3,0.1c0,0.1-0.1,0.1-0.2,0.1c-0.1,0-0.3,0-0.4,0c-0.2,0-0.3,0.1-0.4,0.2
		c-0.1,0.1-0.1,0.3-0.1,0.6c0,0.2,0,0.5,0,0.8c0,0.3,0,1.1,0,2.3v2.6c0,0.9,0,1.6,0,2.1c0,0.5,0,0.9,0.1,1.1c0,0.2,0.1,0.4,0.2,0.5
		c0.1,0.1,0.2,0.2,0.4,0.2c0.1,0,0.2,0,0.4,0c0.1,0,0.3,0,0.4,0c0.2,0,0.2,0,0.2,0.1c0,0.1-0.1,0.1-0.3,0.1c-0.4,0-0.9,0-1.6,0
		c-0.3,0-0.5,0-0.7,0c-0.1,0-0.3,0-0.7,0c-0.6,0-1,0-1.2,0c-0.2,0-0.3,0-0.3-0.1c0-0.1,0.1-0.1,0.2-0.1c0.2,0,0.4,0,0.5-0.1
		c0.2,0,0.4-0.3,0.4-0.7c0-0.3,0-0.7,0.1-1.1c0-0.5,0-1.2,0-2.1V19.7z M34.5,20.9c0,0.1,0,0.2,0.1,0.3c0.1,0,0.3,0.1,0.5,0.1
		c0.2,0,0.4,0,0.6,0c0.3,0,0.5,0,0.6-0.1c0.1,0,0.3-0.1,0.4-0.2c0.3-0.2,0.5-0.5,0.6-0.8c0.2-0.4,0.2-0.8,0.2-1.4
		c0-0.5-0.1-0.9-0.2-1.3c-0.1-0.4-0.3-0.6-0.6-0.8c-0.2-0.2-0.5-0.4-0.7-0.4c-0.3-0.1-0.5-0.1-0.7-0.1c-0.4,0-0.6,0-0.8,0.1
		c-0.1,0-0.1,0.1-0.1,0.2V20.9z M32.8,19.7c0-1.2,0-1.9,0-2.3c0-0.3,0-0.6,0-0.8c0-0.3-0.1-0.5-0.2-0.6c-0.1-0.1-0.2-0.2-0.5-0.3
		c-0.1,0-0.3,0-0.6,0c-0.2,0-0.2,0-0.2-0.1s0.1-0.1,0.3-0.1c0.2,0,0.4,0,0.6,0c0.2,0,0.5,0,0.8,0c0.3,0,0.5,0,0.6,0
		c0.2,0,0.5,0,1.1,0c0.5,0,0.8,0,1,0c0.5,0,1,0,1.5,0.1c0.4,0.1,0.8,0.3,1.2,0.5c0.2,0.2,0.5,0.4,0.7,0.8c0.2,0.4,0.3,0.8,0.3,1.2
		c0,0.6-0.1,1.1-0.4,1.6c-0.3,0.5-0.8,1.1-1.5,1.6l0.5,0.6c1.3,1.6,2.2,2.7,2.7,3.2c0.4,0.4,0.7,0.6,0.9,0.7
		c0.3,0.1,0.5,0.2,0.7,0.3h0c0.2,0,0.3,0,0.4,0c0.1,0,0.2,0,0.2,0.1c0,0.1-0.1,0.1-0.3,0.1h-1.4c-0.4,0-0.7,0-0.9-0.1
		c-0.2,0-0.4-0.1-0.6-0.2c-0.3-0.2-0.6-0.4-0.9-0.7c-0.3-0.3-0.7-0.8-1.1-1.4c-0.2-0.3-0.4-0.6-0.7-1.1c-0.3-0.4-0.4-0.6-0.5-0.7
		c-0.1-0.1-0.1-0.2-0.2-0.2C36.1,22,36,22,35.9,22l-1.3,0c-0.1,0-0.1,0-0.1,0.1v0.2c0,0.9,0,1.5,0,2c0,0.5,0,0.8,0.1,1.1
		c0,0.2,0.1,0.4,0.2,0.6c0.1,0.1,0.2,0.2,0.4,0.2c0.1,0,0.2,0,0.4,0c0.1,0,0.2,0,0.3,0c0.1,0,0.2,0,0.2,0.1c0,0.1-0.1,0.1-0.3,0.1
		c-0.2,0-0.4,0-0.6,0c-0.2,0-0.6,0-1.1,0c-0.2,0-0.4,0-0.5,0c-0.1,0-0.3,0-0.6,0c-0.5,0-0.9,0-1.2,0c-0.2,0-0.3,0-0.3-0.1
		c0-0.1,0.1-0.1,0.2-0.1c0.2,0,0.4,0,0.5-0.1c0.1,0,0.2-0.1,0.3-0.2c0.1-0.1,0.1-0.3,0.1-0.6c0-0.3,0-0.7,0.1-1.1c0-0.5,0-1.1,0-2
		V19.7z M23.9,26.4c-0.8-0.3-1.6-0.7-2.2-1.2c-0.7-0.6-1.1-1.2-1.4-2c-0.3-0.7-0.4-1.5-0.4-2.3c0-0.3,0-0.6,0.1-0.9
		c0.1-0.3,0.1-0.7,0.3-1c0.1-0.4,0.3-0.7,0.5-1.1c0.2-0.4,0.5-0.7,0.8-1c0.6-0.5,1.2-0.9,1.9-1.2c0.7-0.3,1.6-0.4,2.7-0.4
		c0.4,0,0.8,0,1.1,0c0.3,0,0.7,0.1,1,0.1c0.2,0,0.4,0.1,0.7,0.1c0.3,0.1,0.6,0.1,0.7,0.1c0.1,0,0.2,0.1,0.2,0.2c0,0,0,0.1,0,0.2
		c0,0.2,0,0.4-0.1,0.6c0,0.2,0,0.5,0,0.8c0,0.4,0,0.7,0,0.7c0,0.2-0.1,0.3-0.2,0.3c-0.1,0-0.1-0.1-0.1-0.3c0-0.2-0.1-0.5-0.2-0.7
		c-0.1-0.2-0.2-0.5-0.4-0.6c-0.2-0.3-0.6-0.5-1.2-0.7C27.2,16.1,26.6,16,26,16c-0.6,0-1.1,0.1-1.6,0.2c-0.4,0.2-0.8,0.4-1.2,0.7
		c-0.5,0.5-0.8,1-1,1.6c-0.2,0.6-0.3,1.3-0.3,2.1c0,0.8,0.1,1.6,0.4,2.2c0.3,0.7,0.7,1.2,1.1,1.6c0.5,0.4,1,0.8,1.5,1
		c0.5,0.2,1.1,0.3,1.6,0.3c0.7,0,1.2-0.1,1.6-0.2c0.4-0.1,0.7-0.3,1-0.7c0.1-0.1,0.2-0.3,0.3-0.5c0.1-0.2,0.2-0.4,0.2-0.5
		c0-0.1,0-0.2,0.1-0.2c0,0,0.1-0.1,0.1-0.1c0.1,0,0.1,0.1,0.1,0.2c0,0,0,0.2,0,0.3c0,0.2,0,0.3-0.1,0.5c0,0.2-0.1,0.4-0.1,0.6
		c0,0.2-0.1,0.4-0.1,0.5c0,0.1-0.1,0.2-0.1,0.3c0,0.1-0.1,0.1-0.3,0.2c-0.3,0.1-0.7,0.2-1.2,0.2c-0.5,0.1-1,0.1-1.5,0.1
		C25.6,26.7,24.7,26.6,23.9,26.4z M13.5,26.7c-0.3-0.1-0.7-0.2-1-0.3c-0.1,0-0.2-0.1-0.2-0.2c0-0.1-0.1-0.2-0.1-0.3
		c0-0.3,0-0.6,0-0.9c0-0.3,0-0.6,0.1-0.9v0c0-0.3,0.1-0.4,0.2-0.4c0.1,0,0.1,0,0.1,0.1c0,0,0,0.1,0,0.2c0,0.1,0,0.2,0,0.3
		c0,0.1,0.1,0.3,0.1,0.4c0.2,0.5,0.4,0.9,0.8,1.1c0.4,0.2,0.8,0.4,1.3,0.4c0.6,0,1.1-0.2,1.4-0.5c0.3-0.3,0.5-0.7,0.5-1.2
		c0-0.4-0.1-0.8-0.3-1.2c-0.2-0.4-0.6-0.8-1.1-1.2l-0.7-0.5c-0.8-0.6-1.3-1.2-1.7-1.7c-0.3-0.5-0.5-1.1-0.5-1.7c0-0.8,0.3-1.5,0.9-2
		c0.6-0.5,1.4-0.8,2.4-0.8c0.4,0,0.8,0,1.1,0.1c0.3,0,0.6,0.1,0.9,0.2c0.1,0,0.2,0.1,0.2,0.2c0,0,0,0.1,0,0.2c0,0.2,0,0.4,0,0.7
		c0,0.3,0,0.5,0,0.8c0,0.3-0.1,0.4-0.2,0.4c-0.1,0-0.1-0.1-0.1-0.3c0-0.1,0-0.3-0.1-0.4c-0.1-0.2-0.2-0.4-0.3-0.5
		c-0.2-0.2-0.4-0.4-0.6-0.5c-0.2-0.1-0.6-0.2-1-0.2c-0.5,0-0.9,0.1-1.3,0.4C14.1,16.7,14,17,14,17.5c0,0.3,0.1,0.7,0.3,1
		c0.2,0.3,0.6,0.7,1.2,1.1l0.4,0.3c0.9,0.7,1.5,1.3,1.9,1.9c0.4,0.6,0.5,1.2,0.5,1.9c0,0.5-0.1,0.9-0.3,1.4
		c-0.2,0.4-0.6,0.8-1.1,1.2c-0.3,0.2-0.7,0.4-1.1,0.5c-0.4,0.1-0.8,0.1-1.2,0.1C14.2,26.7,13.8,26.7,13.5,26.7z M4.4,19.7
		c0-1.2,0-1.9,0-2.3c0-0.3,0-0.6,0-0.8c0-0.3-0.1-0.5-0.2-0.6c-0.1-0.1-0.2-0.2-0.5-0.3c-0.1,0-0.3,0-0.6,0c-0.2,0-0.2,0-0.2-0.1
		s0.1-0.1,0.3-0.1c0.2,0,0.7,0,1.4,0c0.4,0,0.6,0,0.7,0c2.3,0,3.5,0,3.7,0c0.3,0,0.5-0.1,0.6-0.1c0,0,0,0,0.1,0c0.1,0,0.1,0,0.1,0
		c0.1,0,0.1,0,0.1,0.1c0,0,0,0.1,0,0.1c0,0.2-0.1,0.5-0.1,0.8c0,0,0,0.1,0,0.3c0,0.1,0,0.3,0,0.4c0,0.1,0,0.2,0,0.3
		c0,0.1-0.1,0.2-0.1,0.2c-0.1,0-0.1-0.1-0.1-0.2c0-0.1,0-0.2,0-0.3c0-0.1,0-0.2-0.1-0.3c-0.1-0.1-0.2-0.3-0.3-0.3
		c-0.1-0.1-0.4-0.1-0.7-0.2c-0.1,0-0.2,0-0.3,0c-0.2,0-0.4,0-0.7,0c-0.4,0-0.8,0-1.1,0c-0.1,0-0.1,0-0.1,0.1v3.7
		c0,0.1,0,0.2,0.1,0.2c0.4,0,0.9,0,1.4,0c0.5,0,0.8,0,1,0c0.4,0,0.6-0.1,0.7-0.2l0,0c0.1-0.1,0.2-0.2,0.2-0.2c0.1,0,0.1,0,0.1,0.1
		c0,0,0,0.1,0,0.1c0,0.3-0.1,0.6-0.1,0.9c0,0.1,0,0.3,0,0.5c0,0.2,0,0.4,0,0.5c0,0.1,0,0.2,0,0.2c0,0-0.1,0.1-0.1,0.1
		c-0.1,0-0.1,0-0.1-0.1c0,0,0-0.1,0-0.1c0-0.2,0-0.3,0-0.4c0-0.2-0.1-0.3-0.2-0.4c-0.1-0.1-0.3-0.2-0.6-0.2c-0.1,0-0.2,0-0.4,0
		c-0.2,0-0.4,0-0.6,0c-0.5,0-0.8,0-1.1,0c-0.1,0-0.1,0-0.1,0.1v1.2v2.3c0,0.3,0,0.5,0.1,0.6c0,0.2,0.1,0.3,0.2,0.4
		c0.1,0.1,0.3,0.1,0.5,0.2c0.2,0,0.5,0.1,0.9,0.1c0.3,0,0.6,0,0.8,0c0.2,0,0.4-0.1,0.6-0.1c0.2-0.1,0.3-0.2,0.4-0.4
		c0.1-0.2,0.2-0.4,0.2-0.7c0-0.1,0.1-0.2,0.2-0.2c0,0,0.1,0,0.1,0.1c0,0,0,0.1,0,0.2c0,0.1,0,0.2,0,0.3c0,0.1,0,0.3-0.1,0.5
		c0,0.2,0,0.4-0.1,0.5c0,0.1,0,0.2-0.1,0.3c0,0.2-0.1,0.3-0.2,0.3c-0.1,0-0.3,0.1-0.6,0.1c-0.6,0-1.1,0-1.5,0c-0.4,0-0.9,0-1.5,0
		c-0.5,0-0.9,0-1.1,0c-0.1,0-0.3,0-0.7,0c-0.6,0-1,0-1.2,0c-0.2,0-0.3,0-0.3-0.1c0-0.1,0.1-0.1,0.2-0.1c0.2,0,0.4,0,0.5-0.1
		c0.1,0,0.2-0.1,0.3-0.2c0.1-0.1,0.1-0.3,0.1-0.6c0-0.3,0-0.7,0.1-1.1c0-0.5,0-1.1,0-2V19.7z"/>
	<path class="st0" d="M79.1,31.2c10.8,0,17.7-0.1,17.7-0.1c0,0-6.9-0.1-17.7-0.1c-4-0.1-15.5-0.3-29.1-0.3
		c-13.6,0-25.1,0.1-29.1,0.3c-10.8,0-17.7,0.1-17.7,0.1c0,0,6.9,0.1,17.7,0.1c4,0.1,15.5,0.3,29.1,0.3
		C63.6,31.5,75.1,31.4,79.1,31.2z"/>
</g>
</svg>
